<?xml version="1.0" encoding="utf-8" standalone="no"?>
<!DOCTYPE svg PUBLIC "-//W3C//DTD SVG 1.1//EN"
  "http://www.w3.org/Graphics/SVG/1.1/DTD/svg11.dtd">
<svg xmlns:xlink="http://www.w3.org/1999/xlink" width="442.020313pt" height="47.3125pt" viewBox="0 0 442.020313 47.3125" xmlns="http://www.w3.org/2000/svg" version="1.1">
 <metadata>
  <rdf:RDF xmlns:dc="http://purl.org/dc/elements/1.1/" xmlns:cc="http://creativecommons.org/ns#" xmlns:rdf="http://www.w3.org/1999/02/22-rdf-syntax-ns#">
   <cc:Work>
    <dc:type rdf:resource="http://purl.org/dc/dcmitype/StillImage"/>
    <dc:date>2023-07-17T08:10:30.106760</dc:date>
    <dc:format>image/svg+xml</dc:format>
    <dc:creator>
     <cc:Agent>
      <dc:title>Matplotlib v3.7.1, https://matplotlib.org/</dc:title>
     </cc:Agent>
    </dc:creator>
   </cc:Work>
  </rdf:RDF>
 </metadata>
 <defs>
  <style type="text/css">*{stroke-linejoin: round; stroke-linecap: butt}</style>
 </defs>
 <g id="figure_1">
  <g id="patch_1">
   <path d="M 0 47.3125 
L 442.020313 47.3125 
L 442.020313 0 
L 0 0 
z
" style="fill: #ffffff"/>
  </g>
  <g id="legend_1">
   <g id="patch_2">
    <path d="M 9.2 40.1125 
L 432.820313 40.1125 
Q 434.820313 40.1125 434.820313 38.1125 
L 434.820313 9.2 
Q 434.820313 7.2 432.820313 7.2 
L 9.2 7.2 
Q 7.2 7.2 7.2 9.2 
L 7.2 38.1125 
Q 7.2 40.1125 9.2 40.1125 
z
" style="fill: #ffffff; opacity: 0.8; stroke: #cccccc; stroke-linejoin: miter"/>
   </g>
   <g id="line2d_1">
    <path d="M 11.2 15.298437 
L 21.2 15.298437 
L 31.2 15.298437 
" style="fill: none; stroke: #1f77b4; stroke-width: 1.5; stroke-linecap: square"/>
   </g>
   <g id="text_1">
    <!-- afl -->
    <g transform="translate(39.2 18.798437) scale(0.1 -0.1)">
     <defs>
      <path id="DejaVuSans-61" d="M 2194 1759 
Q 1497 1759 1228 1600 
Q 959 1441 959 1056 
Q 959 750 1161 570 
Q 1363 391 1709 391 
Q 2188 391 2477 730 
Q 2766 1069 2766 1631 
L 2766 1759 
L 2194 1759 
z
M 3341 1997 
L 3341 0 
L 2766 0 
L 2766 531 
Q 2569 213 2275 61 
Q 1981 -91 1556 -91 
Q 1019 -91 701 211 
Q 384 513 384 1019 
Q 384 1609 779 1909 
Q 1175 2209 1959 2209 
L 2766 2209 
L 2766 2266 
Q 2766 2663 2505 2880 
Q 2244 3097 1772 3097 
Q 1472 3097 1187 3025 
Q 903 2953 641 2809 
L 641 3341 
Q 956 3463 1253 3523 
Q 1550 3584 1831 3584 
Q 2591 3584 2966 3190 
Q 3341 2797 3341 1997 
z
" transform="scale(0.015625)"/>
      <path id="DejaVuSans-66" d="M 2375 4863 
L 2375 4384 
L 1825 4384 
Q 1516 4384 1395 4259 
Q 1275 4134 1275 3809 
L 1275 3500 
L 2222 3500 
L 2222 3053 
L 1275 3053 
L 1275 0 
L 697 0 
L 697 3053 
L 147 3053 
L 147 3500 
L 697 3500 
L 697 3744 
Q 697 4328 969 4595 
Q 1241 4863 1831 4863 
L 2375 4863 
z
" transform="scale(0.015625)"/>
      <path id="DejaVuSans-6c" d="M 603 4863 
L 1178 4863 
L 1178 0 
L 603 0 
L 603 4863 
z
" transform="scale(0.015625)"/>
     </defs>
     <use xlink:href="#DejaVuSans-61"/>
     <use xlink:href="#DejaVuSans-66" x="61.279297"/>
     <use xlink:href="#DejaVuSans-6c" x="96.484375"/>
    </g>
   </g>
   <g id="line2d_2">
    <path d="M 11.2 29.976562 
L 21.2 29.976562 
L 31.2 29.976562 
" style="fill: none; stroke: #ff7f0e; stroke-width: 1.5; stroke-linecap: square"/>
   </g>
   <g id="text_2">
    <!-- afl_asan -->
    <g transform="translate(39.2 33.476562) scale(0.1 -0.1)">
     <defs>
      <path id="DejaVuSans-5f" d="M 3263 -1063 
L 3263 -1509 
L -63 -1509 
L -63 -1063 
L 3263 -1063 
z
" transform="scale(0.015625)"/>
      <path id="DejaVuSans-73" d="M 2834 3397 
L 2834 2853 
Q 2591 2978 2328 3040 
Q 2066 3103 1784 3103 
Q 1356 3103 1142 2972 
Q 928 2841 928 2578 
Q 928 2378 1081 2264 
Q 1234 2150 1697 2047 
L 1894 2003 
Q 2506 1872 2764 1633 
Q 3022 1394 3022 966 
Q 3022 478 2636 193 
Q 2250 -91 1575 -91 
Q 1294 -91 989 -36 
Q 684 19 347 128 
L 347 722 
Q 666 556 975 473 
Q 1284 391 1588 391 
Q 1994 391 2212 530 
Q 2431 669 2431 922 
Q 2431 1156 2273 1281 
Q 2116 1406 1581 1522 
L 1381 1569 
Q 847 1681 609 1914 
Q 372 2147 372 2553 
Q 372 3047 722 3315 
Q 1072 3584 1716 3584 
Q 2034 3584 2315 3537 
Q 2597 3491 2834 3397 
z
" transform="scale(0.015625)"/>
      <path id="DejaVuSans-6e" d="M 3513 2113 
L 3513 0 
L 2938 0 
L 2938 2094 
Q 2938 2591 2744 2837 
Q 2550 3084 2163 3084 
Q 1697 3084 1428 2787 
Q 1159 2491 1159 1978 
L 1159 0 
L 581 0 
L 581 3500 
L 1159 3500 
L 1159 2956 
Q 1366 3272 1645 3428 
Q 1925 3584 2291 3584 
Q 2894 3584 3203 3211 
Q 3513 2838 3513 2113 
z
" transform="scale(0.015625)"/>
     </defs>
     <use xlink:href="#DejaVuSans-61"/>
     <use xlink:href="#DejaVuSans-66" x="61.279297"/>
     <use xlink:href="#DejaVuSans-6c" x="96.484375"/>
     <use xlink:href="#DejaVuSans-5f" x="124.267578"/>
     <use xlink:href="#DejaVuSans-61" x="174.267578"/>
     <use xlink:href="#DejaVuSans-73" x="235.546875"/>
     <use xlink:href="#DejaVuSans-61" x="287.646484"/>
     <use xlink:href="#DejaVuSans-6e" x="348.925781"/>
    </g>
   </g>
   <g id="line2d_3">
    <path d="M 100.429688 15.298437 
L 110.429688 15.298437 
L 120.429688 15.298437 
" style="fill: none; stroke: #2ca02c; stroke-width: 1.5; stroke-linecap: square"/>
   </g>
   <g id="text_3">
    <!-- aflplusplus_lto_asan -->
    <g transform="translate(128.429688 18.798437) scale(0.1 -0.1)">
     <defs>
      <path id="DejaVuSans-70" d="M 1159 525 
L 1159 -1331 
L 581 -1331 
L 581 3500 
L 1159 3500 
L 1159 2969 
Q 1341 3281 1617 3432 
Q 1894 3584 2278 3584 
Q 2916 3584 3314 3078 
Q 3713 2572 3713 1747 
Q 3713 922 3314 415 
Q 2916 -91 2278 -91 
Q 1894 -91 1617 61 
Q 1341 213 1159 525 
z
M 3116 1747 
Q 3116 2381 2855 2742 
Q 2594 3103 2138 3103 
Q 1681 3103 1420 2742 
Q 1159 2381 1159 1747 
Q 1159 1113 1420 752 
Q 1681 391 2138 391 
Q 2594 391 2855 752 
Q 3116 1113 3116 1747 
z
" transform="scale(0.015625)"/>
      <path id="DejaVuSans-75" d="M 544 1381 
L 544 3500 
L 1119 3500 
L 1119 1403 
Q 1119 906 1312 657 
Q 1506 409 1894 409 
Q 2359 409 2629 706 
Q 2900 1003 2900 1516 
L 2900 3500 
L 3475 3500 
L 3475 0 
L 2900 0 
L 2900 538 
Q 2691 219 2414 64 
Q 2138 -91 1772 -91 
Q 1169 -91 856 284 
Q 544 659 544 1381 
z
M 1991 3584 
L 1991 3584 
z
" transform="scale(0.015625)"/>
      <path id="DejaVuSans-74" d="M 1172 4494 
L 1172 3500 
L 2356 3500 
L 2356 3053 
L 1172 3053 
L 1172 1153 
Q 1172 725 1289 603 
Q 1406 481 1766 481 
L 2356 481 
L 2356 0 
L 1766 0 
Q 1100 0 847 248 
Q 594 497 594 1153 
L 594 3053 
L 172 3053 
L 172 3500 
L 594 3500 
L 594 4494 
L 1172 4494 
z
" transform="scale(0.015625)"/>
      <path id="DejaVuSans-6f" d="M 1959 3097 
Q 1497 3097 1228 2736 
Q 959 2375 959 1747 
Q 959 1119 1226 758 
Q 1494 397 1959 397 
Q 2419 397 2687 759 
Q 2956 1122 2956 1747 
Q 2956 2369 2687 2733 
Q 2419 3097 1959 3097 
z
M 1959 3584 
Q 2709 3584 3137 3096 
Q 3566 2609 3566 1747 
Q 3566 888 3137 398 
Q 2709 -91 1959 -91 
Q 1206 -91 779 398 
Q 353 888 353 1747 
Q 353 2609 779 3096 
Q 1206 3584 1959 3584 
z
" transform="scale(0.015625)"/>
     </defs>
     <use xlink:href="#DejaVuSans-61"/>
     <use xlink:href="#DejaVuSans-66" x="61.279297"/>
     <use xlink:href="#DejaVuSans-6c" x="96.484375"/>
     <use xlink:href="#DejaVuSans-70" x="124.267578"/>
     <use xlink:href="#DejaVuSans-6c" x="187.744141"/>
     <use xlink:href="#DejaVuSans-75" x="215.527344"/>
     <use xlink:href="#DejaVuSans-73" x="278.90625"/>
     <use xlink:href="#DejaVuSans-70" x="331.005859"/>
     <use xlink:href="#DejaVuSans-6c" x="394.482422"/>
     <use xlink:href="#DejaVuSans-75" x="422.265625"/>
     <use xlink:href="#DejaVuSans-73" x="485.644531"/>
     <use xlink:href="#DejaVuSans-5f" x="537.744141"/>
     <use xlink:href="#DejaVuSans-6c" x="587.744141"/>
     <use xlink:href="#DejaVuSans-74" x="615.527344"/>
     <use xlink:href="#DejaVuSans-6f" x="654.736328"/>
     <use xlink:href="#DejaVuSans-5f" x="715.917969"/>
     <use xlink:href="#DejaVuSans-61" x="765.917969"/>
     <use xlink:href="#DejaVuSans-73" x="827.197266"/>
     <use xlink:href="#DejaVuSans-61" x="879.296875"/>
     <use xlink:href="#DejaVuSans-6e" x="940.576172"/>
    </g>
   </g>
   <g id="line2d_4">
    <path d="M 100.429688 30.254687 
L 110.429688 30.254687 
L 120.429688 30.254687 
" style="fill: none; stroke: #d62728; stroke-width: 1.5; stroke-linecap: square"/>
   </g>
   <g id="text_4">
    <!-- moptafl_asan -->
    <g transform="translate(128.429688 33.754687) scale(0.1 -0.1)">
     <defs>
      <path id="DejaVuSans-6d" d="M 3328 2828 
Q 3544 3216 3844 3400 
Q 4144 3584 4550 3584 
Q 5097 3584 5394 3201 
Q 5691 2819 5691 2113 
L 5691 0 
L 5113 0 
L 5113 2094 
Q 5113 2597 4934 2840 
Q 4756 3084 4391 3084 
Q 3944 3084 3684 2787 
Q 3425 2491 3425 1978 
L 3425 0 
L 2847 0 
L 2847 2094 
Q 2847 2600 2669 2842 
Q 2491 3084 2119 3084 
Q 1678 3084 1418 2786 
Q 1159 2488 1159 1978 
L 1159 0 
L 581 0 
L 581 3500 
L 1159 3500 
L 1159 2956 
Q 1356 3278 1631 3431 
Q 1906 3584 2284 3584 
Q 2666 3584 2933 3390 
Q 3200 3197 3328 2828 
z
" transform="scale(0.015625)"/>
     </defs>
     <use xlink:href="#DejaVuSans-6d"/>
     <use xlink:href="#DejaVuSans-6f" x="97.412109"/>
     <use xlink:href="#DejaVuSans-70" x="158.59375"/>
     <use xlink:href="#DejaVuSans-74" x="222.070312"/>
     <use xlink:href="#DejaVuSans-61" x="261.279297"/>
     <use xlink:href="#DejaVuSans-66" x="322.558594"/>
     <use xlink:href="#DejaVuSans-6c" x="357.763672"/>
     <use xlink:href="#DejaVuSans-5f" x="385.546875"/>
     <use xlink:href="#DejaVuSans-61" x="435.546875"/>
     <use xlink:href="#DejaVuSans-73" x="496.826172"/>
     <use xlink:href="#DejaVuSans-61" x="548.925781"/>
     <use xlink:href="#DejaVuSans-6e" x="610.205078"/>
    </g>
   </g>
   <g id="line2d_5">
    <path d="M 248.823438 15.298437 
L 258.823438 15.298437 
L 268.823438 15.298437 
" style="fill: none; stroke: #9467bd; stroke-width: 1.5; stroke-linecap: square"/>
   </g>
   <g id="text_5">
    <!-- pst_aflplusplus -->
    <g transform="translate(276.823438 18.798437) scale(0.1 -0.1)">
     <use xlink:href="#DejaVuSans-70"/>
     <use xlink:href="#DejaVuSans-73" x="63.476562"/>
     <use xlink:href="#DejaVuSans-74" x="115.576172"/>
     <use xlink:href="#DejaVuSans-5f" x="154.785156"/>
     <use xlink:href="#DejaVuSans-61" x="204.785156"/>
     <use xlink:href="#DejaVuSans-66" x="266.064453"/>
     <use xlink:href="#DejaVuSans-6c" x="301.269531"/>
     <use xlink:href="#DejaVuSans-70" x="329.052734"/>
     <use xlink:href="#DejaVuSans-6c" x="392.529297"/>
     <use xlink:href="#DejaVuSans-75" x="420.3125"/>
     <use xlink:href="#DejaVuSans-73" x="483.691406"/>
     <use xlink:href="#DejaVuSans-70" x="535.791016"/>
     <use xlink:href="#DejaVuSans-6c" x="599.267578"/>
     <use xlink:href="#DejaVuSans-75" x="627.050781"/>
     <use xlink:href="#DejaVuSans-73" x="690.429688"/>
    </g>
   </g>
   <g id="line2d_6">
    <path d="M 248.823438 30.254687 
L 258.823438 30.254687 
L 268.823438 30.254687 
" style="fill: none; stroke: #8c564b; stroke-width: 1.5; stroke-linecap: square"/>
   </g>
   <g id="text_6">
    <!-- pst_aflplusplus_recent_commit -->
    <g transform="translate(276.823438 33.754687) scale(0.1 -0.1)">
     <defs>
      <path id="DejaVuSans-72" d="M 2631 2963 
Q 2534 3019 2420 3045 
Q 2306 3072 2169 3072 
Q 1681 3072 1420 2755 
Q 1159 2438 1159 1844 
L 1159 0 
L 581 0 
L 581 3500 
L 1159 3500 
L 1159 2956 
Q 1341 3275 1631 3429 
Q 1922 3584 2338 3584 
Q 2397 3584 2469 3576 
Q 2541 3569 2628 3553 
L 2631 2963 
z
" transform="scale(0.015625)"/>
      <path id="DejaVuSans-65" d="M 3597 1894 
L 3597 1613 
L 953 1613 
Q 991 1019 1311 708 
Q 1631 397 2203 397 
Q 2534 397 2845 478 
Q 3156 559 3463 722 
L 3463 178 
Q 3153 47 2828 -22 
Q 2503 -91 2169 -91 
Q 1331 -91 842 396 
Q 353 884 353 1716 
Q 353 2575 817 3079 
Q 1281 3584 2069 3584 
Q 2775 3584 3186 3129 
Q 3597 2675 3597 1894 
z
M 3022 2063 
Q 3016 2534 2758 2815 
Q 2500 3097 2075 3097 
Q 1594 3097 1305 2825 
Q 1016 2553 972 2059 
L 3022 2063 
z
" transform="scale(0.015625)"/>
      <path id="DejaVuSans-63" d="M 3122 3366 
L 3122 2828 
Q 2878 2963 2633 3030 
Q 2388 3097 2138 3097 
Q 1578 3097 1268 2742 
Q 959 2388 959 1747 
Q 959 1106 1268 751 
Q 1578 397 2138 397 
Q 2388 397 2633 464 
Q 2878 531 3122 666 
L 3122 134 
Q 2881 22 2623 -34 
Q 2366 -91 2075 -91 
Q 1284 -91 818 406 
Q 353 903 353 1747 
Q 353 2603 823 3093 
Q 1294 3584 2113 3584 
Q 2378 3584 2631 3529 
Q 2884 3475 3122 3366 
z
" transform="scale(0.015625)"/>
      <path id="DejaVuSans-69" d="M 603 3500 
L 1178 3500 
L 1178 0 
L 603 0 
L 603 3500 
z
M 603 4863 
L 1178 4863 
L 1178 4134 
L 603 4134 
L 603 4863 
z
" transform="scale(0.015625)"/>
     </defs>
     <use xlink:href="#DejaVuSans-70"/>
     <use xlink:href="#DejaVuSans-73" x="63.476562"/>
     <use xlink:href="#DejaVuSans-74" x="115.576172"/>
     <use xlink:href="#DejaVuSans-5f" x="154.785156"/>
     <use xlink:href="#DejaVuSans-61" x="204.785156"/>
     <use xlink:href="#DejaVuSans-66" x="266.064453"/>
     <use xlink:href="#DejaVuSans-6c" x="301.269531"/>
     <use xlink:href="#DejaVuSans-70" x="329.052734"/>
     <use xlink:href="#DejaVuSans-6c" x="392.529297"/>
     <use xlink:href="#DejaVuSans-75" x="420.3125"/>
     <use xlink:href="#DejaVuSans-73" x="483.691406"/>
     <use xlink:href="#DejaVuSans-70" x="535.791016"/>
     <use xlink:href="#DejaVuSans-6c" x="599.267578"/>
     <use xlink:href="#DejaVuSans-75" x="627.050781"/>
     <use xlink:href="#DejaVuSans-73" x="690.429688"/>
     <use xlink:href="#DejaVuSans-5f" x="742.529297"/>
     <use xlink:href="#DejaVuSans-72" x="792.529297"/>
     <use xlink:href="#DejaVuSans-65" x="831.392578"/>
     <use xlink:href="#DejaVuSans-63" x="892.916016"/>
     <use xlink:href="#DejaVuSans-65" x="947.896484"/>
     <use xlink:href="#DejaVuSans-6e" x="1009.419922"/>
     <use xlink:href="#DejaVuSans-74" x="1072.798828"/>
     <use xlink:href="#DejaVuSans-5f" x="1112.007812"/>
     <use xlink:href="#DejaVuSans-63" x="1162.007812"/>
     <use xlink:href="#DejaVuSans-6f" x="1216.988281"/>
     <use xlink:href="#DejaVuSans-6d" x="1278.169922"/>
     <use xlink:href="#DejaVuSans-6d" x="1375.582031"/>
     <use xlink:href="#DejaVuSans-69" x="1472.994141"/>
     <use xlink:href="#DejaVuSans-74" x="1500.777344"/>
    </g>
   </g>
  </g>
 </g>
</svg>
