<?xml version="1.0" encoding="utf-8" standalone="no"?>
<!DOCTYPE svg PUBLIC "-//W3C//DTD SVG 1.1//EN"
  "http://www.w3.org/Graphics/SVG/1.1/DTD/svg11.dtd">
<svg xmlns:xlink="http://www.w3.org/1999/xlink" width="615.33125pt" height="377.39625pt" viewBox="0 0 615.33125 377.39625" xmlns="http://www.w3.org/2000/svg" version="1.1">
 <metadata>
  <rdf:RDF xmlns:dc="http://purl.org/dc/elements/1.1/" xmlns:cc="http://creativecommons.org/ns#" xmlns:rdf="http://www.w3.org/1999/02/22-rdf-syntax-ns#">
   <cc:Work>
    <dc:type rdf:resource="http://purl.org/dc/dcmitype/StillImage"/>
    <dc:date>2023-07-17T08:10:26.940830</dc:date>
    <dc:format>image/svg+xml</dc:format>
    <dc:creator>
     <cc:Agent>
      <dc:title>Matplotlib v3.7.1, https://matplotlib.org/</dc:title>
     </cc:Agent>
    </dc:creator>
   </cc:Work>
  </rdf:RDF>
 </metadata>
 <defs>
  <style type="text/css">*{stroke-linejoin: round; stroke-linecap: butt}</style>
 </defs>
 <g id="figure_1">
  <g id="patch_1">
   <path d="M 0 377.39625 
L 615.33125 377.39625 
L 615.33125 0 
L 0 0 
z
" style="fill: #ffffff"/>
  </g>
  <g id="axes_1">
   <g id="patch_2">
    <path d="M 43.78125 339.84 
L 601.78125 339.84 
L 601.78125 7.2 
L 43.78125 7.2 
z
" style="fill: #ffffff"/>
   </g>
   <g id="PolyCollection_1">
    <path d="M -248.18483 23.04 
L -248.18483 23.04 
L 380.597596 23.04 
L 380.597596 189.990663 
L 381.450163 189.990663 
L 381.450163 210.36676 
L 381.732061 210.36676 
L 381.732061 235.702583 
L 382.01283 235.702583 
L 382.01283 281.673749 
L 382.292478 281.673749 
L 382.292478 300.970805 
L 388.68947 300.970805 
L 388.68947 338.026809 
L 388.943742 338.026809 
L 388.943742 339.84 
L 388.943742 339.84 
L 388.943742 339.84 
L 388.943742 226.385221 
L 388.68947 226.385221 
L 388.68947 127.519171 
L 382.292478 127.519171 
L 382.292478 101.234452 
L 382.01283 101.234452 
L 382.01283 57.270544 
L 381.732061 57.270544 
L 381.732061 40.187546 
L 381.450163 40.187546 
L 381.450163 27.702855 
L 380.597596 27.702855 
L 380.597596 23.04 
L -248.18483 23.04 
z
" clip-path="url(#p105f80a9ec)" style="fill: #1f77b4; fill-opacity: 0.25; stroke: #1f77b4; stroke-opacity: 0.25"/>
   </g>
   <g id="PolyCollection_2">
    <path d="M -248.18483 23.04 
L -248.18483 23.04 
L 601.78125 23.04 
L 601.78125 23.04 
L 601.78125 23.04 
L 601.78125 23.04 
L 601.78125 23.04 
L -248.18483 23.04 
z
" clip-path="url(#p105f80a9ec)" style="fill: #1f77b4; fill-opacity: 0.25; stroke: #1f77b4; stroke-opacity: 0.25"/>
   </g>
   <g id="PolyCollection_3">
    <path d="M -248.18483 23.04 
L -248.18483 23.04 
L 421.773051 23.04 
L 421.773051 189.990663 
L 421.931718 189.990663 
L 421.931718 259.794493 
L 422.090027 259.794493 
L 422.090027 317.304593 
L 422.71971 317.304593 
L 422.71971 330.048021 
L 439.993085 330.048021 
L 439.993085 338.026809 
L 440.724066 338.026809 
L 440.724066 339.84 
L 440.724066 339.84 
L 440.724066 339.84 
L 440.724066 226.385221 
L 439.993085 226.385221 
L 439.993085 189.450386 
L 422.71971 189.450386 
L 422.71971 156.77163 
L 422.090027 156.77163 
L 422.090027 77.776398 
L 421.931718 77.776398 
L 421.931718 27.702855 
L 421.773051 27.702855 
L 421.773051 23.04 
L -248.18483 23.04 
z
" clip-path="url(#p105f80a9ec)" style="fill: #ff7f0e; fill-opacity: 0.25; stroke: #ff7f0e; stroke-opacity: 0.25"/>
   </g>
   <g id="PolyCollection_4">
    <path d="M -248.18483 23.04 
L -248.18483 23.04 
L 601.78125 23.04 
L 601.78125 23.04 
L 601.78125 23.04 
L 601.78125 23.04 
L 601.78125 23.04 
L -248.18483 23.04 
z
" clip-path="url(#p105f80a9ec)" style="fill: #ff7f0e; fill-opacity: 0.25; stroke: #ff7f0e; stroke-opacity: 0.25"/>
   </g>
   <g id="PolyCollection_5">
    <defs>
     <path id="m50510fef64" d="M -248.18483 -354.35625 
L -248.18483 -354.35625 
L 43.78125 -354.35625 
L 43.78125 -39.369441 
L 197.700564 -39.369441 
L 197.700564 -37.55625 
L 197.700564 -37.55625 
L 197.700564 -37.55625 
L 197.700564 -151.011029 
L 43.78125 -151.011029 
L 43.78125 -354.35625 
L -248.18483 -354.35625 
z
" style="stroke: #2ca02c; stroke-opacity: 0.25"/>
    </defs>
    <g clip-path="url(#p105f80a9ec)">
     <use xlink:href="#m50510fef64" x="0" y="377.39625" style="fill: #2ca02c; fill-opacity: 0.25; stroke: #2ca02c; stroke-opacity: 0.25"/>
    </g>
   </g>
   <g id="PolyCollection_6">
    <path d="M -248.18483 23.04 
L -248.18483 23.04 
L 408.905742 23.04 
L 408.905742 189.990663 
L 444.84248 189.990663 
L 444.84248 210.36676 
L 450.229499 210.36676 
L 450.229499 235.702583 
L 462.877871 235.702583 
L 462.877871 259.794493 
L 495.592307 259.794493 
L 495.592307 281.673749 
L 497.017508 281.673749 
L 497.017508 300.970805 
L 508.410374 300.970805 
L 508.410374 317.304593 
L 511.698521 317.304593 
L 511.698521 330.048021 
L 514.332516 330.048021 
L 514.332516 338.026809 
L 534.833887 338.026809 
L 534.833887 339.84 
L 534.833887 339.84 
L 534.833887 339.84 
L 534.833887 226.385221 
L 514.332516 226.385221 
L 514.332516 189.450386 
L 511.698521 189.450386 
L 511.698521 156.77163 
L 508.410374 156.77163 
L 508.410374 127.519171 
L 497.017508 127.519171 
L 497.017508 101.234452 
L 495.592307 101.234452 
L 495.592307 77.776398 
L 462.877871 77.776398 
L 462.877871 57.270544 
L 450.229499 57.270544 
L 450.229499 40.187546 
L 444.84248 40.187546 
L 444.84248 27.702855 
L 408.905742 27.702855 
L 408.905742 23.04 
L -248.18483 23.04 
z
" clip-path="url(#p105f80a9ec)" style="fill: #2ca02c; fill-opacity: 0.25; stroke: #2ca02c; stroke-opacity: 0.25"/>
   </g>
   <g id="PolyCollection_7">
    <defs>
     <path id="md64d28ce65" d="M -248.18483 -354.35625 
L -248.18483 -354.35625 
L 92.337388 -354.35625 
L 92.337388 -187.405587 
L 174.904172 -187.405587 
L 174.904172 -167.02949 
L 193.69652 -167.02949 
L 193.69652 -141.693667 
L 217.853182 -141.693667 
L 217.853182 -117.601757 
L 233.484767 -117.601757 
L 233.484767 -95.722501 
L 240.161407 -95.722501 
L 240.161407 -76.425445 
L 242.252658 -76.425445 
L 242.252658 -60.091657 
L 248.176047 -60.091657 
L 248.176047 -47.348229 
L 263.427947 -47.348229 
L 263.427947 -39.369441 
L 282.040905 -39.369441 
L 282.040905 -37.55625 
L 282.040905 -37.55625 
L 282.040905 -37.55625 
L 282.040905 -151.011029 
L 263.427947 -151.011029 
L 263.427947 -187.945864 
L 248.176047 -187.945864 
L 248.176047 -220.62462 
L 242.252658 -220.62462 
L 242.252658 -249.877079 
L 240.161407 -249.877079 
L 240.161407 -276.161798 
L 233.484767 -276.161798 
L 233.484767 -299.619852 
L 217.853182 -299.619852 
L 217.853182 -320.125706 
L 193.69652 -320.125706 
L 193.69652 -337.208704 
L 174.904172 -337.208704 
L 174.904172 -349.693395 
L 92.337388 -349.693395 
L 92.337388 -354.35625 
L -248.18483 -354.35625 
z
" style="stroke: #d62728; stroke-opacity: 0.25"/>
    </defs>
    <g clip-path="url(#p105f80a9ec)">
     <use xlink:href="#md64d28ce65" x="0" y="377.39625" style="fill: #d62728; fill-opacity: 0.25; stroke: #d62728; stroke-opacity: 0.25"/>
    </g>
   </g>
   <g id="PolyCollection_8">
    <path d="M -248.18483 23.04 
L -248.18483 23.04 
L 388.434272 23.04 
L 388.434272 189.990663 
L 391.925115 189.990663 
L 391.925115 210.36676 
L 426.975785 210.36676 
L 426.975785 235.702583 
L 427.709318 235.702583 
L 427.709318 259.794493 
L 456.983056 259.794493 
L 456.983056 281.673749 
L 457.079083 281.673749 
L 457.079083 300.970805 
L 482.275566 300.970805 
L 482.275566 317.304593 
L 493.284248 317.304593 
L 493.284248 330.048021 
L 508.778341 330.048021 
L 508.778341 338.026809 
L 522.068277 338.026809 
L 522.068277 339.84 
L 522.068277 339.84 
L 522.068277 339.84 
L 522.068277 226.385221 
L 508.778341 226.385221 
L 508.778341 189.450386 
L 493.284248 189.450386 
L 493.284248 156.77163 
L 482.275566 156.77163 
L 482.275566 127.519171 
L 457.079083 127.519171 
L 457.079083 101.234452 
L 456.983056 101.234452 
L 456.983056 77.776398 
L 427.709318 77.776398 
L 427.709318 57.270544 
L 426.975785 57.270544 
L 426.975785 40.187546 
L 391.925115 40.187546 
L 391.925115 27.702855 
L 388.434272 27.702855 
L 388.434272 23.04 
L -248.18483 23.04 
z
" clip-path="url(#p105f80a9ec)" style="fill: #d62728; fill-opacity: 0.25; stroke: #d62728; stroke-opacity: 0.25"/>
   </g>
   <g id="PolyCollection_9">
    <defs>
     <path id="mefa60d9c0c" d="M -248.18483 -354.35625 
L -248.18483 -354.35625 
L 43.78125 -354.35625 
L 43.78125 -39.369441 
L 107.968972 -39.369441 
L 107.968972 -37.55625 
L 107.968972 -37.55625 
L 107.968972 -37.55625 
L 107.968972 -151.011029 
L 43.78125 -151.011029 
L 43.78125 -354.35625 
L -248.18483 -354.35625 
z
" style="stroke: #9467bd; stroke-opacity: 0.25"/>
    </defs>
    <g clip-path="url(#p105f80a9ec)">
     <use xlink:href="#mefa60d9c0c" x="0" y="377.39625" style="fill: #9467bd; fill-opacity: 0.25; stroke: #9467bd; stroke-opacity: 0.25"/>
    </g>
   </g>
   <g id="PolyCollection_10">
    <path d="M -248.18483 23.04 
L -248.18483 23.04 
L 235.78175 23.04 
L 235.78175 189.990663 
L 258.70357 189.990663 
L 258.70357 210.36676 
L 295.779085 210.36676 
L 295.779085 235.702583 
L 338.327111 235.702583 
L 338.327111 259.794493 
L 374.006681 259.794493 
L 374.006681 281.673749 
L 400.176017 281.673749 
L 400.176017 300.970805 
L 428.723527 300.970805 
L 428.723527 317.304593 
L 495.203592 317.304593 
L 495.203592 330.048021 
L 495.592307 330.048021 
L 495.592307 338.026809 
L 601.78125 338.026809 
L 601.78125 338.026809 
L 601.78125 226.385221 
L 601.78125 226.385221 
L 601.78125 226.385221 
L 495.592307 226.385221 
L 495.592307 189.450386 
L 495.203592 189.450386 
L 495.203592 156.77163 
L 428.723527 156.77163 
L 428.723527 127.519171 
L 400.176017 127.519171 
L 400.176017 101.234452 
L 374.006681 101.234452 
L 374.006681 77.776398 
L 338.327111 77.776398 
L 338.327111 57.270544 
L 295.779085 57.270544 
L 295.779085 40.187546 
L 258.70357 40.187546 
L 258.70357 27.702855 
L 235.78175 27.702855 
L 235.78175 23.04 
L -248.18483 23.04 
z
" clip-path="url(#p105f80a9ec)" style="fill: #9467bd; fill-opacity: 0.25; stroke: #9467bd; stroke-opacity: 0.25"/>
   </g>
   <g id="PolyCollection_11">
    <defs>
     <path id="m526d734069" d="M -248.18483 -354.35625 
L -248.18483 -354.35625 
L 43.78125 -354.35625 
L 43.78125 -37.55625 
L 43.78125 -37.55625 
L 43.78125 -37.55625 
L 43.78125 -354.35625 
L -248.18483 -354.35625 
z
" style="stroke: #8c564b; stroke-opacity: 0.25"/>
    </defs>
    <g clip-path="url(#p105f80a9ec)">
     <use xlink:href="#m526d734069" x="0" y="377.39625" style="fill: #8c564b; fill-opacity: 0.25; stroke: #8c564b; stroke-opacity: 0.25"/>
    </g>
   </g>
   <g id="PolyCollection_12">
    <path d="M -248.18483 23.04 
L -248.18483 23.04 
L 305.611357 23.04 
L 305.611357 189.990663 
L 325.763975 189.990663 
L 325.763975 210.36676 
L 356.221944 210.36676 
L 356.221944 235.702583 
L 396.171973 235.702583 
L 396.171973 259.794493 
L 419.676986 259.794493 
L 419.676986 281.673749 
L 443.224052 281.673749 
L 443.224052 300.970805 
L 487.562563 300.970805 
L 487.562563 317.304593 
L 489.158902 317.304593 
L 489.158902 330.048021 
L 504.327615 330.048021 
L 504.327615 338.026809 
L 549.349722 338.026809 
L 549.349722 339.84 
L 549.349722 339.84 
L 549.349722 339.84 
L 549.349722 226.385221 
L 504.327615 226.385221 
L 504.327615 189.450386 
L 489.158902 189.450386 
L 489.158902 156.77163 
L 487.562563 156.77163 
L 487.562563 127.519171 
L 443.224052 127.519171 
L 443.224052 101.234452 
L 419.676986 101.234452 
L 419.676986 77.776398 
L 396.171973 77.776398 
L 396.171973 57.270544 
L 356.221944 57.270544 
L 356.221944 40.187546 
L 325.763975 40.187546 
L 325.763975 27.702855 
L 305.611357 27.702855 
L 305.611357 23.04 
L -248.18483 23.04 
z
" clip-path="url(#p105f80a9ec)" style="fill: #8c564b; fill-opacity: 0.25; stroke: #8c564b; stroke-opacity: 0.25"/>
   </g>
   <g id="matplotlib.axis_1">
    <g id="xtick_1">
     <g id="line2d_1">
      <defs>
       <path id="m32c935e7de" d="M 0 0 
L 0 3.5 
" style="stroke: #000000; stroke-width: 0.8"/>
      </defs>
      <g>
       <use xlink:href="#m32c935e7de" x="169.297045" y="339.84" style="stroke: #000000; stroke-width: 0.8"/>
      </g>
     </g>
     <g id="text_1">
      <!-- 1m -->
      <g transform="translate(161.245482 354.438437) scale(0.1 -0.1)">
       <defs>
        <path id="DejaVuSans-31" d="M 794 531 
L 1825 531 
L 1825 4091 
L 703 3866 
L 703 4441 
L 1819 4666 
L 2450 4666 
L 2450 531 
L 3481 531 
L 3481 0 
L 794 0 
L 794 531 
z
" transform="scale(0.015625)"/>
        <path id="DejaVuSans-6d" d="M 3328 2828 
Q 3544 3216 3844 3400 
Q 4144 3584 4550 3584 
Q 5097 3584 5394 3201 
Q 5691 2819 5691 2113 
L 5691 0 
L 5113 0 
L 5113 2094 
Q 5113 2597 4934 2840 
Q 4756 3084 4391 3084 
Q 3944 3084 3684 2787 
Q 3425 2491 3425 1978 
L 3425 0 
L 2847 0 
L 2847 2094 
Q 2847 2600 2669 2842 
Q 2491 3084 2119 3084 
Q 1678 3084 1418 2786 
Q 1159 2488 1159 1978 
L 1159 0 
L 581 0 
L 581 3500 
L 1159 3500 
L 1159 2956 
Q 1356 3278 1631 3431 
Q 1906 3584 2284 3584 
Q 2666 3584 2933 3390 
Q 3200 3197 3328 2828 
z
" transform="scale(0.015625)"/>
       </defs>
       <use xlink:href="#DejaVuSans-31"/>
       <use xlink:href="#DejaVuSans-6d" x="63.623047"/>
      </g>
     </g>
    </g>
    <g id="xtick_2">
     <g id="line2d_2">
      <g>
       <use xlink:href="#m32c935e7de" x="217.853182" y="339.84" style="stroke: #000000; stroke-width: 0.8"/>
      </g>
     </g>
     <g id="text_2">
      <!-- 2m -->
      <g transform="translate(209.80162 354.438437) scale(0.1 -0.1)">
       <defs>
        <path id="DejaVuSans-32" d="M 1228 531 
L 3431 531 
L 3431 0 
L 469 0 
L 469 531 
Q 828 903 1448 1529 
Q 2069 2156 2228 2338 
Q 2531 2678 2651 2914 
Q 2772 3150 2772 3378 
Q 2772 3750 2511 3984 
Q 2250 4219 1831 4219 
Q 1534 4219 1204 4116 
Q 875 4013 500 3803 
L 500 4441 
Q 881 4594 1212 4672 
Q 1544 4750 1819 4750 
Q 2544 4750 2975 4387 
Q 3406 4025 3406 3419 
Q 3406 3131 3298 2873 
Q 3191 2616 2906 2266 
Q 2828 2175 2409 1742 
Q 1991 1309 1228 531 
z
" transform="scale(0.015625)"/>
       </defs>
       <use xlink:href="#DejaVuSans-32"/>
       <use xlink:href="#DejaVuSans-6d" x="63.623047"/>
      </g>
     </g>
    </g>
    <g id="xtick_3">
     <g id="line2d_3">
      <g>
       <use xlink:href="#m32c935e7de" x="266.40932" y="339.84" style="stroke: #000000; stroke-width: 0.8"/>
      </g>
     </g>
     <g id="text_3">
      <!-- 4m -->
      <g transform="translate(258.357757 354.438437) scale(0.1 -0.1)">
       <defs>
        <path id="DejaVuSans-34" d="M 2419 4116 
L 825 1625 
L 2419 1625 
L 2419 4116 
z
M 2253 4666 
L 3047 4666 
L 3047 1625 
L 3713 1625 
L 3713 1100 
L 3047 1100 
L 3047 0 
L 2419 0 
L 2419 1100 
L 313 1100 
L 313 1709 
L 2253 4666 
z
" transform="scale(0.015625)"/>
       </defs>
       <use xlink:href="#DejaVuSans-34"/>
       <use xlink:href="#DejaVuSans-6d" x="63.623047"/>
      </g>
     </g>
    </g>
    <g id="xtick_4">
     <g id="line2d_4">
      <g>
       <use xlink:href="#m32c935e7de" x="314.965458" y="339.84" style="stroke: #000000; stroke-width: 0.8"/>
      </g>
     </g>
     <g id="text_4">
      <!-- 8m -->
      <g transform="translate(306.913895 354.438437) scale(0.1 -0.1)">
       <defs>
        <path id="DejaVuSans-38" d="M 2034 2216 
Q 1584 2216 1326 1975 
Q 1069 1734 1069 1313 
Q 1069 891 1326 650 
Q 1584 409 2034 409 
Q 2484 409 2743 651 
Q 3003 894 3003 1313 
Q 3003 1734 2745 1975 
Q 2488 2216 2034 2216 
z
M 1403 2484 
Q 997 2584 770 2862 
Q 544 3141 544 3541 
Q 544 4100 942 4425 
Q 1341 4750 2034 4750 
Q 2731 4750 3128 4425 
Q 3525 4100 3525 3541 
Q 3525 3141 3298 2862 
Q 3072 2584 2669 2484 
Q 3125 2378 3379 2068 
Q 3634 1759 3634 1313 
Q 3634 634 3220 271 
Q 2806 -91 2034 -91 
Q 1263 -91 848 271 
Q 434 634 434 1313 
Q 434 1759 690 2068 
Q 947 2378 1403 2484 
z
M 1172 3481 
Q 1172 3119 1398 2916 
Q 1625 2713 2034 2713 
Q 2441 2713 2670 2916 
Q 2900 3119 2900 3481 
Q 2900 3844 2670 4047 
Q 2441 4250 2034 4250 
Q 1625 4250 1398 4047 
Q 1172 3844 1172 3481 
z
" transform="scale(0.015625)"/>
       </defs>
       <use xlink:href="#DejaVuSans-38"/>
       <use xlink:href="#DejaVuSans-6d" x="63.623047"/>
      </g>
     </g>
    </g>
    <g id="xtick_5">
     <g id="line2d_5">
      <g>
       <use xlink:href="#m32c935e7de" x="359.000562" y="339.84" style="stroke: #000000; stroke-width: 0.8"/>
      </g>
     </g>
     <g id="text_5">
      <!-- 15m -->
      <g transform="translate(347.76775 354.438437) scale(0.1 -0.1)">
       <defs>
        <path id="DejaVuSans-35" d="M 691 4666 
L 3169 4666 
L 3169 4134 
L 1269 4134 
L 1269 2991 
Q 1406 3038 1543 3061 
Q 1681 3084 1819 3084 
Q 2600 3084 3056 2656 
Q 3513 2228 3513 1497 
Q 3513 744 3044 326 
Q 2575 -91 1722 -91 
Q 1428 -91 1123 -41 
Q 819 9 494 109 
L 494 744 
Q 775 591 1075 516 
Q 1375 441 1709 441 
Q 2250 441 2565 725 
Q 2881 1009 2881 1497 
Q 2881 1984 2565 2268 
Q 2250 2553 1709 2553 
Q 1456 2553 1204 2497 
Q 953 2441 691 2322 
L 691 4666 
z
" transform="scale(0.015625)"/>
       </defs>
       <use xlink:href="#DejaVuSans-31"/>
       <use xlink:href="#DejaVuSans-35" x="63.623047"/>
       <use xlink:href="#DejaVuSans-6d" x="127.246094"/>
      </g>
     </g>
    </g>
    <g id="xtick_6">
     <g id="line2d_6">
      <g>
       <use xlink:href="#m32c935e7de" x="407.5567" y="339.84" style="stroke: #000000; stroke-width: 0.8"/>
      </g>
     </g>
     <g id="text_6">
      <!-- 30m -->
      <g transform="translate(396.323887 354.438437) scale(0.1 -0.1)">
       <defs>
        <path id="DejaVuSans-33" d="M 2597 2516 
Q 3050 2419 3304 2112 
Q 3559 1806 3559 1356 
Q 3559 666 3084 287 
Q 2609 -91 1734 -91 
Q 1441 -91 1130 -33 
Q 819 25 488 141 
L 488 750 
Q 750 597 1062 519 
Q 1375 441 1716 441 
Q 2309 441 2620 675 
Q 2931 909 2931 1356 
Q 2931 1769 2642 2001 
Q 2353 2234 1838 2234 
L 1294 2234 
L 1294 2753 
L 1863 2753 
Q 2328 2753 2575 2939 
Q 2822 3125 2822 3475 
Q 2822 3834 2567 4026 
Q 2313 4219 1838 4219 
Q 1578 4219 1281 4162 
Q 984 4106 628 3988 
L 628 4550 
Q 988 4650 1302 4700 
Q 1616 4750 1894 4750 
Q 2613 4750 3031 4423 
Q 3450 4097 3450 3541 
Q 3450 3153 3228 2886 
Q 3006 2619 2597 2516 
z
" transform="scale(0.015625)"/>
        <path id="DejaVuSans-30" d="M 2034 4250 
Q 1547 4250 1301 3770 
Q 1056 3291 1056 2328 
Q 1056 1369 1301 889 
Q 1547 409 2034 409 
Q 2525 409 2770 889 
Q 3016 1369 3016 2328 
Q 3016 3291 2770 3770 
Q 2525 4250 2034 4250 
z
M 2034 4750 
Q 2819 4750 3233 4129 
Q 3647 3509 3647 2328 
Q 3647 1150 3233 529 
Q 2819 -91 2034 -91 
Q 1250 -91 836 529 
Q 422 1150 422 2328 
Q 422 3509 836 4129 
Q 1250 4750 2034 4750 
z
" transform="scale(0.015625)"/>
       </defs>
       <use xlink:href="#DejaVuSans-33"/>
       <use xlink:href="#DejaVuSans-30" x="63.623047"/>
       <use xlink:href="#DejaVuSans-6d" x="127.246094"/>
      </g>
     </g>
    </g>
    <g id="xtick_7">
     <g id="line2d_7">
      <g>
       <use xlink:href="#m32c935e7de" x="456.112837" y="339.84" style="stroke: #000000; stroke-width: 0.8"/>
      </g>
     </g>
     <g id="text_7">
      <!-- 1h -->
      <g transform="translate(449.762837 354.438437) scale(0.1 -0.1)">
       <defs>
        <path id="DejaVuSans-68" d="M 3513 2113 
L 3513 0 
L 2938 0 
L 2938 2094 
Q 2938 2591 2744 2837 
Q 2550 3084 2163 3084 
Q 1697 3084 1428 2787 
Q 1159 2491 1159 1978 
L 1159 0 
L 581 0 
L 581 4863 
L 1159 4863 
L 1159 2956 
Q 1366 3272 1645 3428 
Q 1925 3584 2291 3584 
Q 2894 3584 3203 3211 
Q 3513 2838 3513 2113 
z
" transform="scale(0.015625)"/>
       </defs>
       <use xlink:href="#DejaVuSans-31"/>
       <use xlink:href="#DejaVuSans-68" x="63.623047"/>
      </g>
     </g>
    </g>
    <g id="xtick_8">
     <g id="line2d_8">
      <g>
       <use xlink:href="#m32c935e7de" x="504.668975" y="339.84" style="stroke: #000000; stroke-width: 0.8"/>
      </g>
     </g>
     <g id="text_8">
      <!-- 2h -->
      <g transform="translate(498.318975 354.438437) scale(0.1 -0.1)">
       <use xlink:href="#DejaVuSans-32"/>
       <use xlink:href="#DejaVuSans-68" x="63.623047"/>
      </g>
     </g>
    </g>
    <g id="xtick_9">
     <g id="line2d_9">
      <g>
       <use xlink:href="#m32c935e7de" x="553.225112" y="339.84" style="stroke: #000000; stroke-width: 0.8"/>
      </g>
     </g>
     <g id="text_9">
      <!-- 4h -->
      <g transform="translate(546.875112 354.438437) scale(0.1 -0.1)">
       <use xlink:href="#DejaVuSans-34"/>
       <use xlink:href="#DejaVuSans-68" x="63.623047"/>
      </g>
     </g>
    </g>
    <g id="xtick_10">
     <g id="line2d_10">
      <g>
       <use xlink:href="#m32c935e7de" x="601.78125" y="339.84" style="stroke: #000000; stroke-width: 0.8"/>
      </g>
     </g>
     <g id="text_10">
      <!-- 8h -->
      <g transform="translate(595.43125 354.438437) scale(0.1 -0.1)">
       <use xlink:href="#DejaVuSans-38"/>
       <use xlink:href="#DejaVuSans-68" x="63.623047"/>
      </g>
     </g>
    </g>
    <g id="xtick_11">
     <g id="line2d_11">
      <defs>
       <path id="mf645c59269" d="M 0 0 
L 0 2 
" style="stroke: #000000; stroke-width: 0.6"/>
      </defs>
      <g>
       <use xlink:href="#mf645c59269" x="43.78125" y="339.84" style="stroke: #000000; stroke-width: 0.6"/>
      </g>
     </g>
    </g>
    <g id="xtick_12">
     <g id="line2d_12">
      <g>
       <use xlink:href="#mf645c59269" x="205.081248" y="339.84" style="stroke: #000000; stroke-width: 0.6"/>
      </g>
     </g>
    </g>
    <g id="xtick_13">
     <g id="line2d_13">
      <g>
       <use xlink:href="#mf645c59269" x="366.381245" y="339.84" style="stroke: #000000; stroke-width: 0.6"/>
      </g>
     </g>
    </g>
    <g id="xtick_14">
     <g id="line2d_14">
      <g>
       <use xlink:href="#mf645c59269" x="527.681243" y="339.84" style="stroke: #000000; stroke-width: 0.6"/>
      </g>
     </g>
    </g>
    <g id="text_11">
     <!-- Time -->
     <g transform="translate(310.547656 368.116562) scale(0.1 -0.1)">
      <defs>
       <path id="DejaVuSans-54" d="M -19 4666 
L 3928 4666 
L 3928 4134 
L 2272 4134 
L 2272 0 
L 1638 0 
L 1638 4134 
L -19 4134 
L -19 4666 
z
" transform="scale(0.015625)"/>
       <path id="DejaVuSans-69" d="M 603 3500 
L 1178 3500 
L 1178 0 
L 603 0 
L 603 3500 
z
M 603 4863 
L 1178 4863 
L 1178 4134 
L 603 4134 
L 603 4863 
z
" transform="scale(0.015625)"/>
       <path id="DejaVuSans-65" d="M 3597 1894 
L 3597 1613 
L 953 1613 
Q 991 1019 1311 708 
Q 1631 397 2203 397 
Q 2534 397 2845 478 
Q 3156 559 3463 722 
L 3463 178 
Q 3153 47 2828 -22 
Q 2503 -91 2169 -91 
Q 1331 -91 842 396 
Q 353 884 353 1716 
Q 353 2575 817 3079 
Q 1281 3584 2069 3584 
Q 2775 3584 3186 3129 
Q 3597 2675 3597 1894 
z
M 3022 2063 
Q 3016 2534 2758 2815 
Q 2500 3097 2075 3097 
Q 1594 3097 1305 2825 
Q 1016 2553 972 2059 
L 3022 2063 
z
" transform="scale(0.015625)"/>
      </defs>
      <use xlink:href="#DejaVuSans-54"/>
      <use xlink:href="#DejaVuSans-69" x="57.958984"/>
      <use xlink:href="#DejaVuSans-6d" x="85.742188"/>
      <use xlink:href="#DejaVuSans-65" x="183.154297"/>
     </g>
    </g>
   </g>
   <g id="matplotlib.axis_2">
    <g id="ytick_1">
     <g id="line2d_15">
      <defs>
       <path id="m60acfbbe2d" d="M 0 0 
L -3.5 0 
" style="stroke: #000000; stroke-width: 0.8"/>
      </defs>
      <g>
       <use xlink:href="#m60acfbbe2d" x="43.78125" y="339.84" style="stroke: #000000; stroke-width: 0.8"/>
      </g>
     </g>
     <g id="text_12">
      <!-- 0.0 -->
      <g transform="translate(20.878125 343.639219) scale(0.1 -0.1)">
       <defs>
        <path id="DejaVuSans-2e" d="M 684 794 
L 1344 794 
L 1344 0 
L 684 0 
L 684 794 
z
" transform="scale(0.015625)"/>
       </defs>
       <use xlink:href="#DejaVuSans-30"/>
       <use xlink:href="#DejaVuSans-2e" x="63.623047"/>
       <use xlink:href="#DejaVuSans-30" x="95.410156"/>
      </g>
     </g>
    </g>
    <g id="ytick_2">
     <g id="line2d_16">
      <g>
       <use xlink:href="#m60acfbbe2d" x="43.78125" y="276.48" style="stroke: #000000; stroke-width: 0.8"/>
      </g>
     </g>
     <g id="text_13">
      <!-- 0.2 -->
      <g transform="translate(20.878125 280.279219) scale(0.1 -0.1)">
       <use xlink:href="#DejaVuSans-30"/>
       <use xlink:href="#DejaVuSans-2e" x="63.623047"/>
       <use xlink:href="#DejaVuSans-32" x="95.410156"/>
      </g>
     </g>
    </g>
    <g id="ytick_3">
     <g id="line2d_17">
      <g>
       <use xlink:href="#m60acfbbe2d" x="43.78125" y="213.12" style="stroke: #000000; stroke-width: 0.8"/>
      </g>
     </g>
     <g id="text_14">
      <!-- 0.4 -->
      <g transform="translate(20.878125 216.919219) scale(0.1 -0.1)">
       <use xlink:href="#DejaVuSans-30"/>
       <use xlink:href="#DejaVuSans-2e" x="63.623047"/>
       <use xlink:href="#DejaVuSans-34" x="95.410156"/>
      </g>
     </g>
    </g>
    <g id="ytick_4">
     <g id="line2d_18">
      <g>
       <use xlink:href="#m60acfbbe2d" x="43.78125" y="149.76" style="stroke: #000000; stroke-width: 0.8"/>
      </g>
     </g>
     <g id="text_15">
      <!-- 0.6 -->
      <g transform="translate(20.878125 153.559219) scale(0.1 -0.1)">
       <defs>
        <path id="DejaVuSans-36" d="M 2113 2584 
Q 1688 2584 1439 2293 
Q 1191 2003 1191 1497 
Q 1191 994 1439 701 
Q 1688 409 2113 409 
Q 2538 409 2786 701 
Q 3034 994 3034 1497 
Q 3034 2003 2786 2293 
Q 2538 2584 2113 2584 
z
M 3366 4563 
L 3366 3988 
Q 3128 4100 2886 4159 
Q 2644 4219 2406 4219 
Q 1781 4219 1451 3797 
Q 1122 3375 1075 2522 
Q 1259 2794 1537 2939 
Q 1816 3084 2150 3084 
Q 2853 3084 3261 2657 
Q 3669 2231 3669 1497 
Q 3669 778 3244 343 
Q 2819 -91 2113 -91 
Q 1303 -91 875 529 
Q 447 1150 447 2328 
Q 447 3434 972 4092 
Q 1497 4750 2381 4750 
Q 2619 4750 2861 4703 
Q 3103 4656 3366 4563 
z
" transform="scale(0.015625)"/>
       </defs>
       <use xlink:href="#DejaVuSans-30"/>
       <use xlink:href="#DejaVuSans-2e" x="63.623047"/>
       <use xlink:href="#DejaVuSans-36" x="95.410156"/>
      </g>
     </g>
    </g>
    <g id="ytick_5">
     <g id="line2d_19">
      <g>
       <use xlink:href="#m60acfbbe2d" x="43.78125" y="86.4" style="stroke: #000000; stroke-width: 0.8"/>
      </g>
     </g>
     <g id="text_16">
      <!-- 0.8 -->
      <g transform="translate(20.878125 90.199219) scale(0.1 -0.1)">
       <use xlink:href="#DejaVuSans-30"/>
       <use xlink:href="#DejaVuSans-2e" x="63.623047"/>
       <use xlink:href="#DejaVuSans-38" x="95.410156"/>
      </g>
     </g>
    </g>
    <g id="ytick_6">
     <g id="line2d_20">
      <g>
       <use xlink:href="#m60acfbbe2d" x="43.78125" y="23.04" style="stroke: #000000; stroke-width: 0.8"/>
      </g>
     </g>
     <g id="text_17">
      <!-- 1.0 -->
      <g transform="translate(20.878125 26.839219) scale(0.1 -0.1)">
       <use xlink:href="#DejaVuSans-31"/>
       <use xlink:href="#DejaVuSans-2e" x="63.623047"/>
       <use xlink:href="#DejaVuSans-30" x="95.410156"/>
      </g>
     </g>
    </g>
    <g id="text_18">
     <!-- Survival Probability -->
     <g transform="translate(14.798438 221.697344) rotate(-90) scale(0.1 -0.1)">
      <defs>
       <path id="DejaVuSans-53" d="M 3425 4513 
L 3425 3897 
Q 3066 4069 2747 4153 
Q 2428 4238 2131 4238 
Q 1616 4238 1336 4038 
Q 1056 3838 1056 3469 
Q 1056 3159 1242 3001 
Q 1428 2844 1947 2747 
L 2328 2669 
Q 3034 2534 3370 2195 
Q 3706 1856 3706 1288 
Q 3706 609 3251 259 
Q 2797 -91 1919 -91 
Q 1588 -91 1214 -16 
Q 841 59 441 206 
L 441 856 
Q 825 641 1194 531 
Q 1563 422 1919 422 
Q 2459 422 2753 634 
Q 3047 847 3047 1241 
Q 3047 1584 2836 1778 
Q 2625 1972 2144 2069 
L 1759 2144 
Q 1053 2284 737 2584 
Q 422 2884 422 3419 
Q 422 4038 858 4394 
Q 1294 4750 2059 4750 
Q 2388 4750 2728 4690 
Q 3069 4631 3425 4513 
z
" transform="scale(0.015625)"/>
       <path id="DejaVuSans-75" d="M 544 1381 
L 544 3500 
L 1119 3500 
L 1119 1403 
Q 1119 906 1312 657 
Q 1506 409 1894 409 
Q 2359 409 2629 706 
Q 2900 1003 2900 1516 
L 2900 3500 
L 3475 3500 
L 3475 0 
L 2900 0 
L 2900 538 
Q 2691 219 2414 64 
Q 2138 -91 1772 -91 
Q 1169 -91 856 284 
Q 544 659 544 1381 
z
M 1991 3584 
L 1991 3584 
z
" transform="scale(0.015625)"/>
       <path id="DejaVuSans-72" d="M 2631 2963 
Q 2534 3019 2420 3045 
Q 2306 3072 2169 3072 
Q 1681 3072 1420 2755 
Q 1159 2438 1159 1844 
L 1159 0 
L 581 0 
L 581 3500 
L 1159 3500 
L 1159 2956 
Q 1341 3275 1631 3429 
Q 1922 3584 2338 3584 
Q 2397 3584 2469 3576 
Q 2541 3569 2628 3553 
L 2631 2963 
z
" transform="scale(0.015625)"/>
       <path id="DejaVuSans-76" d="M 191 3500 
L 800 3500 
L 1894 563 
L 2988 3500 
L 3597 3500 
L 2284 0 
L 1503 0 
L 191 3500 
z
" transform="scale(0.015625)"/>
       <path id="DejaVuSans-61" d="M 2194 1759 
Q 1497 1759 1228 1600 
Q 959 1441 959 1056 
Q 959 750 1161 570 
Q 1363 391 1709 391 
Q 2188 391 2477 730 
Q 2766 1069 2766 1631 
L 2766 1759 
L 2194 1759 
z
M 3341 1997 
L 3341 0 
L 2766 0 
L 2766 531 
Q 2569 213 2275 61 
Q 1981 -91 1556 -91 
Q 1019 -91 701 211 
Q 384 513 384 1019 
Q 384 1609 779 1909 
Q 1175 2209 1959 2209 
L 2766 2209 
L 2766 2266 
Q 2766 2663 2505 2880 
Q 2244 3097 1772 3097 
Q 1472 3097 1187 3025 
Q 903 2953 641 2809 
L 641 3341 
Q 956 3463 1253 3523 
Q 1550 3584 1831 3584 
Q 2591 3584 2966 3190 
Q 3341 2797 3341 1997 
z
" transform="scale(0.015625)"/>
       <path id="DejaVuSans-6c" d="M 603 4863 
L 1178 4863 
L 1178 0 
L 603 0 
L 603 4863 
z
" transform="scale(0.015625)"/>
       <path id="DejaVuSans-20" transform="scale(0.015625)"/>
       <path id="DejaVuSans-50" d="M 1259 4147 
L 1259 2394 
L 2053 2394 
Q 2494 2394 2734 2622 
Q 2975 2850 2975 3272 
Q 2975 3691 2734 3919 
Q 2494 4147 2053 4147 
L 1259 4147 
z
M 628 4666 
L 2053 4666 
Q 2838 4666 3239 4311 
Q 3641 3956 3641 3272 
Q 3641 2581 3239 2228 
Q 2838 1875 2053 1875 
L 1259 1875 
L 1259 0 
L 628 0 
L 628 4666 
z
" transform="scale(0.015625)"/>
       <path id="DejaVuSans-6f" d="M 1959 3097 
Q 1497 3097 1228 2736 
Q 959 2375 959 1747 
Q 959 1119 1226 758 
Q 1494 397 1959 397 
Q 2419 397 2687 759 
Q 2956 1122 2956 1747 
Q 2956 2369 2687 2733 
Q 2419 3097 1959 3097 
z
M 1959 3584 
Q 2709 3584 3137 3096 
Q 3566 2609 3566 1747 
Q 3566 888 3137 398 
Q 2709 -91 1959 -91 
Q 1206 -91 779 398 
Q 353 888 353 1747 
Q 353 2609 779 3096 
Q 1206 3584 1959 3584 
z
" transform="scale(0.015625)"/>
       <path id="DejaVuSans-62" d="M 3116 1747 
Q 3116 2381 2855 2742 
Q 2594 3103 2138 3103 
Q 1681 3103 1420 2742 
Q 1159 2381 1159 1747 
Q 1159 1113 1420 752 
Q 1681 391 2138 391 
Q 2594 391 2855 752 
Q 3116 1113 3116 1747 
z
M 1159 2969 
Q 1341 3281 1617 3432 
Q 1894 3584 2278 3584 
Q 2916 3584 3314 3078 
Q 3713 2572 3713 1747 
Q 3713 922 3314 415 
Q 2916 -91 2278 -91 
Q 1894 -91 1617 61 
Q 1341 213 1159 525 
L 1159 0 
L 581 0 
L 581 4863 
L 1159 4863 
L 1159 2969 
z
" transform="scale(0.015625)"/>
       <path id="DejaVuSans-74" d="M 1172 4494 
L 1172 3500 
L 2356 3500 
L 2356 3053 
L 1172 3053 
L 1172 1153 
Q 1172 725 1289 603 
Q 1406 481 1766 481 
L 2356 481 
L 2356 0 
L 1766 0 
Q 1100 0 847 248 
Q 594 497 594 1153 
L 594 3053 
L 172 3053 
L 172 3500 
L 594 3500 
L 594 4494 
L 1172 4494 
z
" transform="scale(0.015625)"/>
       <path id="DejaVuSans-79" d="M 2059 -325 
Q 1816 -950 1584 -1140 
Q 1353 -1331 966 -1331 
L 506 -1331 
L 506 -850 
L 844 -850 
Q 1081 -850 1212 -737 
Q 1344 -625 1503 -206 
L 1606 56 
L 191 3500 
L 800 3500 
L 1894 763 
L 2988 3500 
L 3597 3500 
L 2059 -325 
z
" transform="scale(0.015625)"/>
      </defs>
      <use xlink:href="#DejaVuSans-53"/>
      <use xlink:href="#DejaVuSans-75" x="63.476562"/>
      <use xlink:href="#DejaVuSans-72" x="126.855469"/>
      <use xlink:href="#DejaVuSans-76" x="167.96875"/>
      <use xlink:href="#DejaVuSans-69" x="227.148438"/>
      <use xlink:href="#DejaVuSans-76" x="254.931641"/>
      <use xlink:href="#DejaVuSans-61" x="314.111328"/>
      <use xlink:href="#DejaVuSans-6c" x="375.390625"/>
      <use xlink:href="#DejaVuSans-20" x="403.173828"/>
      <use xlink:href="#DejaVuSans-50" x="434.960938"/>
      <use xlink:href="#DejaVuSans-72" x="493.513672"/>
      <use xlink:href="#DejaVuSans-6f" x="532.376953"/>
      <use xlink:href="#DejaVuSans-62" x="593.558594"/>
      <use xlink:href="#DejaVuSans-61" x="657.035156"/>
      <use xlink:href="#DejaVuSans-62" x="718.314453"/>
      <use xlink:href="#DejaVuSans-69" x="781.791016"/>
      <use xlink:href="#DejaVuSans-6c" x="809.574219"/>
      <use xlink:href="#DejaVuSans-69" x="837.357422"/>
      <use xlink:href="#DejaVuSans-74" x="865.140625"/>
      <use xlink:href="#DejaVuSans-79" x="904.349609"/>
     </g>
    </g>
   </g>
   <g id="line2d_21">
    <path d="M -1 23.04 
L 380.597596 23.04 
L 380.597596 54.72 
L 381.450163 54.72 
L 381.450163 86.4 
L 381.732061 86.4 
L 381.732061 118.08 
L 382.01283 118.08 
L 382.01283 181.44 
L 382.292478 181.44 
L 382.292478 213.12 
L 388.68947 213.12 
L 388.68947 308.16 
L 388.943742 308.16 
L 388.943742 339.84 
" clip-path="url(#p105f80a9ec)" style="fill: none; stroke-dasharray: 1.5,2.475; stroke-dashoffset: 0; stroke: #1f77b4; stroke-width: 1.5"/>
    <defs>
     <path id="mab2a4957d0" d="M 0 1.5 
C 0.397805 1.5 0.77937 1.341951 1.06066 1.06066 
C 1.341951 0.77937 1.5 0.397805 1.5 0 
C 1.5 -0.397805 1.341951 -0.77937 1.06066 -1.06066 
C 0.77937 -1.341951 0.397805 -1.5 0 -1.5 
C -0.397805 -1.5 -0.77937 -1.341951 -1.06066 -1.06066 
C -1.341951 -0.77937 -1.5 -0.397805 -1.5 0 
C -1.5 0.397805 -1.341951 0.77937 -1.06066 1.06066 
C -0.77937 1.341951 -0.397805 1.5 0 1.5 
z
" style="stroke: #1f77b4"/>
    </defs>
    <g clip-path="url(#p105f80a9ec)">
     <use xlink:href="#mab2a4957d0" x="-1" y="35.493935" style="fill: #1f77b4; stroke: #1f77b4"/>
     <use xlink:href="#mab2a4957d0" x="380.597596" y="54.72" style="fill: #1f77b4; stroke: #1f77b4"/>
     <use xlink:href="#mab2a4957d0" x="381.450163" y="86.4" style="fill: #1f77b4; stroke: #1f77b4"/>
     <use xlink:href="#mab2a4957d0" x="381.732061" y="118.08" style="fill: #1f77b4; stroke: #1f77b4"/>
     <use xlink:href="#mab2a4957d0" x="382.01283" y="181.44" style="fill: #1f77b4; stroke: #1f77b4"/>
     <use xlink:href="#mab2a4957d0" x="382.292478" y="213.12" style="fill: #1f77b4; stroke: #1f77b4"/>
     <use xlink:href="#mab2a4957d0" x="388.68947" y="308.16" style="fill: #1f77b4; stroke: #1f77b4"/>
     <use xlink:href="#mab2a4957d0" x="388.943742" y="339.84" style="fill: #1f77b4; stroke: #1f77b4"/>
    </g>
   </g>
   <g id="line2d_22">
    <path d="M -1 23.04 
L 601.78125 23.04 
L 601.78125 23.04 
" clip-path="url(#p105f80a9ec)" style="fill: none; stroke: #1f77b4; stroke-width: 1.5; stroke-linecap: square"/>
    <defs>
     <path id="m071b852b80" d="M 3 0 
L -3 -3 
L -3 3 
z
" style="stroke: #1f77b4; stroke-linejoin: miter"/>
    </defs>
    <g clip-path="url(#p105f80a9ec)">
     <use xlink:href="#m071b852b80" x="-1" y="23.04" style="fill: #1f77b4; stroke: #1f77b4; stroke-linejoin: miter"/>
     <use xlink:href="#m071b852b80" x="601.78125" y="23.04" style="fill: #1f77b4; stroke: #1f77b4; stroke-linejoin: miter"/>
    </g>
   </g>
   <g id="line2d_23">
    <path d="M -1 23.04 
L 421.773051 23.04 
L 421.773051 54.72 
L 421.931718 54.72 
L 421.931718 149.76 
L 422.090027 149.76 
L 422.090027 244.8 
L 422.71971 244.8 
L 422.71971 276.48 
L 439.993085 276.48 
L 439.993085 308.16 
L 440.724066 308.16 
L 440.724066 339.84 
" clip-path="url(#p105f80a9ec)" style="fill: none; stroke-dasharray: 1.5,2.475; stroke-dashoffset: 0; stroke: #ff7f0e; stroke-width: 1.5"/>
    <defs>
     <path id="m9d16df147a" d="M 0 1.5 
C 0.397805 1.5 0.77937 1.341951 1.06066 1.06066 
C 1.341951 0.77937 1.5 0.397805 1.5 0 
C 1.5 -0.397805 1.341951 -0.77937 1.06066 -1.06066 
C 0.77937 -1.341951 0.397805 -1.5 0 -1.5 
C -0.397805 -1.5 -0.77937 -1.341951 -1.06066 -1.06066 
C -1.341951 -0.77937 -1.5 -0.397805 -1.5 0 
C -1.5 0.397805 -1.341951 0.77937 -1.06066 1.06066 
C -0.77937 1.341951 -0.397805 1.5 0 1.5 
z
" style="stroke: #ff7f0e"/>
    </defs>
    <g clip-path="url(#p105f80a9ec)">
     <use xlink:href="#m9d16df147a" x="-1" y="34.728519" style="fill: #ff7f0e; stroke: #ff7f0e"/>
     <use xlink:href="#m9d16df147a" x="421.773051" y="54.72" style="fill: #ff7f0e; stroke: #ff7f0e"/>
     <use xlink:href="#m9d16df147a" x="421.931718" y="149.76" style="fill: #ff7f0e; stroke: #ff7f0e"/>
     <use xlink:href="#m9d16df147a" x="422.090027" y="244.8" style="fill: #ff7f0e; stroke: #ff7f0e"/>
     <use xlink:href="#m9d16df147a" x="422.71971" y="276.48" style="fill: #ff7f0e; stroke: #ff7f0e"/>
     <use xlink:href="#m9d16df147a" x="439.993085" y="308.16" style="fill: #ff7f0e; stroke: #ff7f0e"/>
     <use xlink:href="#m9d16df147a" x="440.724066" y="339.84" style="fill: #ff7f0e; stroke: #ff7f0e"/>
    </g>
   </g>
   <g id="line2d_24">
    <path d="M -1 23.04 
L 601.78125 23.04 
L 601.78125 23.04 
" clip-path="url(#p105f80a9ec)" style="fill: none; stroke: #ff7f0e; stroke-width: 1.5; stroke-linecap: square"/>
    <defs>
     <path id="m17ebe966ed" d="M 3 0 
L -3 -3 
L -3 3 
z
" style="stroke: #ff7f0e; stroke-linejoin: miter"/>
    </defs>
    <g clip-path="url(#p105f80a9ec)">
     <use xlink:href="#m17ebe966ed" x="-1" y="23.04" style="fill: #ff7f0e; stroke: #ff7f0e; stroke-linejoin: miter"/>
     <use xlink:href="#m17ebe966ed" x="601.78125" y="23.04" style="fill: #ff7f0e; stroke: #ff7f0e; stroke-linejoin: miter"/>
    </g>
   </g>
   <g id="line2d_25">
    <path d="M -1 23.04 
L 43.78125 23.04 
L 43.78125 308.16 
L 197.700564 308.16 
L 197.700564 339.84 
" clip-path="url(#p105f80a9ec)" style="fill: none; stroke-dasharray: 1.5,2.475; stroke-dashoffset: 0; stroke: #2ca02c; stroke-width: 1.5"/>
    <defs>
     <path id="mf2a6ab4bf2" d="M 0 1.5 
C 0.397805 1.5 0.77937 1.341951 1.06066 1.06066 
C 1.341951 0.77937 1.5 0.397805 1.5 0 
C 1.5 -0.397805 1.341951 -0.77937 1.06066 -1.06066 
C 0.77937 -1.341951 0.397805 -1.5 0 -1.5 
C -0.397805 -1.5 -0.77937 -1.341951 -1.06066 -1.06066 
C -1.341951 -0.77937 -1.5 -0.397805 -1.5 0 
C -1.5 0.397805 -1.341951 0.77937 -1.06066 1.06066 
C -0.77937 1.341951 -0.397805 1.5 0 1.5 
z
" style="stroke: #2ca02c"/>
    </defs>
    <g clip-path="url(#p105f80a9ec)">
     <use xlink:href="#mf2a6ab4bf2" x="-1" y="264.42879" style="fill: #2ca02c; stroke: #2ca02c"/>
     <use xlink:href="#mf2a6ab4bf2" x="43.78125" y="308.16" style="fill: #2ca02c; stroke: #2ca02c"/>
     <use xlink:href="#mf2a6ab4bf2" x="197.700564" y="339.84" style="fill: #2ca02c; stroke: #2ca02c"/>
    </g>
   </g>
   <g id="line2d_26">
    <path d="M -1 23.04 
L 408.905742 23.04 
L 408.905742 54.72 
L 444.84248 54.72 
L 444.84248 86.4 
L 450.229499 86.4 
L 450.229499 118.08 
L 462.877871 118.08 
L 462.877871 149.76 
L 495.592307 149.76 
L 495.592307 181.44 
L 497.017508 181.44 
L 497.017508 213.12 
L 508.410374 213.12 
L 508.410374 244.8 
L 511.698521 244.8 
L 511.698521 276.48 
L 514.332516 276.48 
L 514.332516 308.16 
L 534.833887 308.16 
L 534.833887 339.84 
" clip-path="url(#p105f80a9ec)" style="fill: none; stroke: #2ca02c; stroke-width: 1.5; stroke-linecap: square"/>
    <defs>
     <path id="m432d5645f3" d="M 3 0 
L -3 -3 
L -3 3 
z
" style="stroke: #2ca02c; stroke-linejoin: miter"/>
    </defs>
    <g clip-path="url(#p105f80a9ec)">
     <use xlink:href="#m432d5645f3" x="-1" y="34.957406" style="fill: #2ca02c; stroke: #2ca02c; stroke-linejoin: miter"/>
     <use xlink:href="#m432d5645f3" x="408.905742" y="54.72" style="fill: #2ca02c; stroke: #2ca02c; stroke-linejoin: miter"/>
     <use xlink:href="#m432d5645f3" x="444.84248" y="86.4" style="fill: #2ca02c; stroke: #2ca02c; stroke-linejoin: miter"/>
     <use xlink:href="#m432d5645f3" x="450.229499" y="118.08" style="fill: #2ca02c; stroke: #2ca02c; stroke-linejoin: miter"/>
     <use xlink:href="#m432d5645f3" x="462.877871" y="149.76" style="fill: #2ca02c; stroke: #2ca02c; stroke-linejoin: miter"/>
     <use xlink:href="#m432d5645f3" x="495.592307" y="181.44" style="fill: #2ca02c; stroke: #2ca02c; stroke-linejoin: miter"/>
     <use xlink:href="#m432d5645f3" x="497.017508" y="213.12" style="fill: #2ca02c; stroke: #2ca02c; stroke-linejoin: miter"/>
     <use xlink:href="#m432d5645f3" x="508.410374" y="244.8" style="fill: #2ca02c; stroke: #2ca02c; stroke-linejoin: miter"/>
     <use xlink:href="#m432d5645f3" x="511.698521" y="276.48" style="fill: #2ca02c; stroke: #2ca02c; stroke-linejoin: miter"/>
     <use xlink:href="#m432d5645f3" x="514.332516" y="308.16" style="fill: #2ca02c; stroke: #2ca02c; stroke-linejoin: miter"/>
     <use xlink:href="#m432d5645f3" x="534.833887" y="339.84" style="fill: #2ca02c; stroke: #2ca02c; stroke-linejoin: miter"/>
    </g>
   </g>
   <g id="line2d_27">
    <path d="M -1 23.04 
L 92.337388 23.04 
L 92.337388 54.72 
L 174.904172 54.72 
L 174.904172 86.4 
L 193.69652 86.4 
L 193.69652 118.08 
L 217.853182 118.08 
L 217.853182 149.76 
L 233.484767 149.76 
L 233.484767 181.44 
L 240.161407 181.44 
L 240.161407 213.12 
L 242.252658 213.12 
L 242.252658 244.8 
L 248.176047 244.8 
L 248.176047 276.48 
L 263.427947 276.48 
L 263.427947 308.16 
L 282.040905 308.16 
L 282.040905 339.84 
" clip-path="url(#p105f80a9ec)" style="fill: none; stroke-dasharray: 1.5,2.475; stroke-dashoffset: 0; stroke: #d62728; stroke-width: 1.5"/>
    <defs>
     <path id="m298002440c" d="M 0 1.5 
C 0.397805 1.5 0.77937 1.341951 1.06066 1.06066 
C 1.341951 0.77937 1.5 0.397805 1.5 0 
C 1.5 -0.397805 1.341951 -0.77937 1.06066 -1.06066 
C 0.77937 -1.341951 0.397805 -1.5 0 -1.5 
C -0.397805 -1.5 -0.77937 -1.341951 -1.06066 -1.06066 
C -1.341951 -0.77937 -1.5 -0.397805 -1.5 0 
C -1.5 0.397805 -1.341951 0.77937 -1.06066 1.06066 
C -0.77937 1.341951 -0.397805 1.5 0 1.5 
z
" style="stroke: #d62728"/>
    </defs>
    <g clip-path="url(#p105f80a9ec)">
     <use xlink:href="#m298002440c" x="-1" y="46.036489" style="fill: #d62728; stroke: #d62728"/>
     <use xlink:href="#m298002440c" x="92.337388" y="54.72" style="fill: #d62728; stroke: #d62728"/>
     <use xlink:href="#m298002440c" x="174.904172" y="86.4" style="fill: #d62728; stroke: #d62728"/>
     <use xlink:href="#m298002440c" x="193.69652" y="118.08" style="fill: #d62728; stroke: #d62728"/>
     <use xlink:href="#m298002440c" x="217.853182" y="149.76" style="fill: #d62728; stroke: #d62728"/>
     <use xlink:href="#m298002440c" x="233.484767" y="181.44" style="fill: #d62728; stroke: #d62728"/>
     <use xlink:href="#m298002440c" x="240.161407" y="213.12" style="fill: #d62728; stroke: #d62728"/>
     <use xlink:href="#m298002440c" x="242.252658" y="244.8" style="fill: #d62728; stroke: #d62728"/>
     <use xlink:href="#m298002440c" x="248.176047" y="276.48" style="fill: #d62728; stroke: #d62728"/>
     <use xlink:href="#m298002440c" x="263.427947" y="308.16" style="fill: #d62728; stroke: #d62728"/>
     <use xlink:href="#m298002440c" x="282.040905" y="339.84" style="fill: #d62728; stroke: #d62728"/>
    </g>
   </g>
   <g id="line2d_28">
    <path d="M -1 23.04 
L 388.434272 23.04 
L 388.434272 54.72 
L 391.925115 54.72 
L 391.925115 86.4 
L 426.975785 86.4 
L 426.975785 118.08 
L 427.709318 118.08 
L 427.709318 149.76 
L 456.983056 149.76 
L 456.983056 181.44 
L 457.079083 181.44 
L 457.079083 213.12 
L 482.275566 213.12 
L 482.275566 244.8 
L 493.284248 244.8 
L 493.284248 276.48 
L 508.778341 276.48 
L 508.778341 308.16 
L 522.068277 308.16 
L 522.068277 339.84 
" clip-path="url(#p105f80a9ec)" style="fill: none; stroke: #d62728; stroke-width: 1.5; stroke-linecap: square"/>
    <defs>
     <path id="md2ea212ce3" d="M 3 0 
L -3 -3 
L -3 3 
z
" style="stroke: #d62728; stroke-linejoin: miter"/>
    </defs>
    <g clip-path="url(#p105f80a9ec)">
     <use xlink:href="#md2ea212ce3" x="-1" y="35.340629" style="fill: #d62728; stroke: #d62728; stroke-linejoin: miter"/>
     <use xlink:href="#md2ea212ce3" x="388.434272" y="54.72" style="fill: #d62728; stroke: #d62728; stroke-linejoin: miter"/>
     <use xlink:href="#md2ea212ce3" x="391.925115" y="86.4" style="fill: #d62728; stroke: #d62728; stroke-linejoin: miter"/>
     <use xlink:href="#md2ea212ce3" x="426.975785" y="118.08" style="fill: #d62728; stroke: #d62728; stroke-linejoin: miter"/>
     <use xlink:href="#md2ea212ce3" x="427.709318" y="149.76" style="fill: #d62728; stroke: #d62728; stroke-linejoin: miter"/>
     <use xlink:href="#md2ea212ce3" x="456.983056" y="181.44" style="fill: #d62728; stroke: #d62728; stroke-linejoin: miter"/>
     <use xlink:href="#md2ea212ce3" x="457.079083" y="213.12" style="fill: #d62728; stroke: #d62728; stroke-linejoin: miter"/>
     <use xlink:href="#md2ea212ce3" x="482.275566" y="244.8" style="fill: #d62728; stroke: #d62728; stroke-linejoin: miter"/>
     <use xlink:href="#md2ea212ce3" x="493.284248" y="276.48" style="fill: #d62728; stroke: #d62728; stroke-linejoin: miter"/>
     <use xlink:href="#md2ea212ce3" x="508.778341" y="308.16" style="fill: #d62728; stroke: #d62728; stroke-linejoin: miter"/>
     <use xlink:href="#md2ea212ce3" x="522.068277" y="339.84" style="fill: #d62728; stroke: #d62728; stroke-linejoin: miter"/>
    </g>
   </g>
   <g id="line2d_29">
    <path d="M -1 23.04 
L 43.78125 23.04 
L 43.78125 308.16 
L 107.968972 308.16 
L 107.968972 339.84 
" clip-path="url(#p105f80a9ec)" style="fill: none; stroke-dasharray: 1.5,2.475; stroke-dashoffset: 0; stroke: #9467bd; stroke-width: 1.5"/>
    <defs>
     <path id="m840ca8487c" d="M 0 1.5 
C 0.397805 1.5 0.77937 1.341951 1.06066 1.06066 
C 1.341951 0.77937 1.5 0.397805 1.5 0 
C 1.5 -0.397805 1.341951 -0.77937 1.06066 -1.06066 
C 0.77937 -1.341951 0.397805 -1.5 0 -1.5 
C -0.397805 -1.5 -0.77937 -1.341951 -1.06066 -1.06066 
C -1.341951 -0.77937 -1.5 -0.397805 -1.5 0 
C -1.5 0.397805 -1.341951 0.77937 -1.06066 1.06066 
C -0.77937 1.341951 -0.397805 1.5 0 1.5 
z
" style="stroke: #9467bd"/>
    </defs>
    <g clip-path="url(#p105f80a9ec)">
     <use xlink:href="#m840ca8487c" x="-1" y="264.42879" style="fill: #9467bd; stroke: #9467bd"/>
     <use xlink:href="#m840ca8487c" x="43.78125" y="308.16" style="fill: #9467bd; stroke: #9467bd"/>
     <use xlink:href="#m840ca8487c" x="107.968972" y="339.84" style="fill: #9467bd; stroke: #9467bd"/>
    </g>
   </g>
   <g id="line2d_30">
    <path d="M -1 23.04 
L 235.78175 23.04 
L 235.78175 54.72 
L 258.70357 54.72 
L 258.70357 86.4 
L 295.779085 86.4 
L 295.779085 118.08 
L 338.327111 118.08 
L 338.327111 149.76 
L 374.006681 149.76 
L 374.006681 181.44 
L 400.176017 181.44 
L 400.176017 213.12 
L 428.723527 213.12 
L 428.723527 244.8 
L 495.203592 244.8 
L 495.203592 276.48 
L 495.592307 276.48 
L 495.592307 308.16 
L 601.78125 308.16 
L 601.78125 308.16 
" clip-path="url(#p105f80a9ec)" style="fill: none; stroke: #9467bd; stroke-width: 1.5; stroke-linecap: square"/>
    <defs>
     <path id="md959aa6fd8" d="M 3 0 
L -3 -3 
L -3 3 
z
" style="stroke: #9467bd; stroke-linejoin: miter"/>
    </defs>
    <g clip-path="url(#p105f80a9ec)">
     <use xlink:href="#md959aa6fd8" x="-1" y="39.220488" style="fill: #9467bd; stroke: #9467bd; stroke-linejoin: miter"/>
     <use xlink:href="#md959aa6fd8" x="235.78175" y="54.72" style="fill: #9467bd; stroke: #9467bd; stroke-linejoin: miter"/>
     <use xlink:href="#md959aa6fd8" x="258.70357" y="86.4" style="fill: #9467bd; stroke: #9467bd; stroke-linejoin: miter"/>
     <use xlink:href="#md959aa6fd8" x="295.779085" y="118.08" style="fill: #9467bd; stroke: #9467bd; stroke-linejoin: miter"/>
     <use xlink:href="#md959aa6fd8" x="338.327111" y="149.76" style="fill: #9467bd; stroke: #9467bd; stroke-linejoin: miter"/>
     <use xlink:href="#md959aa6fd8" x="374.006681" y="181.44" style="fill: #9467bd; stroke: #9467bd; stroke-linejoin: miter"/>
     <use xlink:href="#md959aa6fd8" x="400.176017" y="213.12" style="fill: #9467bd; stroke: #9467bd; stroke-linejoin: miter"/>
     <use xlink:href="#md959aa6fd8" x="428.723527" y="244.8" style="fill: #9467bd; stroke: #9467bd; stroke-linejoin: miter"/>
     <use xlink:href="#md959aa6fd8" x="495.203592" y="276.48" style="fill: #9467bd; stroke: #9467bd; stroke-linejoin: miter"/>
     <use xlink:href="#md959aa6fd8" x="495.592307" y="308.16" style="fill: #9467bd; stroke: #9467bd; stroke-linejoin: miter"/>
     <use xlink:href="#md959aa6fd8" x="601.78125" y="308.16" style="fill: #9467bd; stroke: #9467bd; stroke-linejoin: miter"/>
    </g>
   </g>
   <g id="line2d_31">
    <path d="M -1 23.04 
L 43.78125 23.04 
L 43.78125 339.84 
" clip-path="url(#p105f80a9ec)" style="fill: none; stroke-dasharray: 1.5,2.475; stroke-dashoffset: 0; stroke: #8c564b; stroke-width: 1.5"/>
    <defs>
     <path id="maa867eb30a" d="M 0 1.5 
C 0.397805 1.5 0.77937 1.341951 1.06066 1.06066 
C 1.341951 0.77937 1.5 0.397805 1.5 0 
C 1.5 -0.397805 1.341951 -0.77937 1.06066 -1.06066 
C 0.77937 -1.341951 0.397805 -1.5 0 -1.5 
C -0.397805 -1.5 -0.77937 -1.341951 -1.06066 -1.06066 
C -1.341951 -0.77937 -1.5 -0.397805 -1.5 0 
C -1.5 0.397805 -1.341951 0.77937 -1.06066 1.06066 
C -0.77937 1.341951 -0.397805 1.5 0 1.5 
z
" style="stroke: #8c564b"/>
    </defs>
    <g clip-path="url(#p105f80a9ec)">
     <use xlink:href="#maa867eb30a" x="-1" y="291.249766" style="fill: #8c564b; stroke: #8c564b"/>
     <use xlink:href="#maa867eb30a" x="43.78125" y="339.84" style="fill: #8c564b; stroke: #8c564b"/>
    </g>
   </g>
   <g id="line2d_32">
    <path d="M -1 23.04 
L 305.611357 23.04 
L 305.611357 54.72 
L 325.763975 54.72 
L 325.763975 86.4 
L 356.221944 86.4 
L 356.221944 118.08 
L 396.171973 118.08 
L 396.171973 149.76 
L 419.676986 149.76 
L 419.676986 181.44 
L 443.224052 181.44 
L 443.224052 213.12 
L 487.562563 213.12 
L 487.562563 244.8 
L 489.158902 244.8 
L 489.158902 276.48 
L 504.327615 276.48 
L 504.327615 308.16 
L 549.349722 308.16 
L 549.349722 339.84 
" clip-path="url(#p105f80a9ec)" style="fill: none; stroke: #8c564b; stroke-width: 1.5; stroke-linecap: square"/>
    <defs>
     <path id="me9ff47e545" d="M 3 0 
L -3 -3 
L -3 3 
z
" style="stroke: #8c564b; stroke-linejoin: miter"/>
    </defs>
    <g clip-path="url(#p105f80a9ec)">
     <use xlink:href="#me9ff47e545" x="-1" y="37.180248" style="fill: #8c564b; stroke: #8c564b; stroke-linejoin: miter"/>
     <use xlink:href="#me9ff47e545" x="305.611357" y="54.72" style="fill: #8c564b; stroke: #8c564b; stroke-linejoin: miter"/>
     <use xlink:href="#me9ff47e545" x="325.763975" y="86.4" style="fill: #8c564b; stroke: #8c564b; stroke-linejoin: miter"/>
     <use xlink:href="#me9ff47e545" x="356.221944" y="118.08" style="fill: #8c564b; stroke: #8c564b; stroke-linejoin: miter"/>
     <use xlink:href="#me9ff47e545" x="396.171973" y="149.76" style="fill: #8c564b; stroke: #8c564b; stroke-linejoin: miter"/>
     <use xlink:href="#me9ff47e545" x="419.676986" y="181.44" style="fill: #8c564b; stroke: #8c564b; stroke-linejoin: miter"/>
     <use xlink:href="#me9ff47e545" x="443.224052" y="213.12" style="fill: #8c564b; stroke: #8c564b; stroke-linejoin: miter"/>
     <use xlink:href="#me9ff47e545" x="487.562563" y="244.8" style="fill: #8c564b; stroke: #8c564b; stroke-linejoin: miter"/>
     <use xlink:href="#me9ff47e545" x="489.158902" y="276.48" style="fill: #8c564b; stroke: #8c564b; stroke-linejoin: miter"/>
     <use xlink:href="#me9ff47e545" x="504.327615" y="308.16" style="fill: #8c564b; stroke: #8c564b; stroke-linejoin: miter"/>
     <use xlink:href="#me9ff47e545" x="549.349722" y="339.84" style="fill: #8c564b; stroke: #8c564b; stroke-linejoin: miter"/>
    </g>
   </g>
   <g id="patch_3">
    <path d="M 43.78125 339.84 
L 43.78125 7.2 
" style="fill: none; stroke: #000000; stroke-width: 0.8; stroke-linejoin: miter; stroke-linecap: square"/>
   </g>
   <g id="patch_4">
    <path d="M 601.78125 339.84 
L 601.78125 7.2 
" style="fill: none; stroke: #000000; stroke-width: 0.8; stroke-linejoin: miter; stroke-linecap: square"/>
   </g>
   <g id="patch_5">
    <path d="M 43.78125 339.84 
L 601.78125 339.84 
" style="fill: none; stroke: #000000; stroke-width: 0.8; stroke-linejoin: miter; stroke-linecap: square"/>
   </g>
   <g id="patch_6">
    <path d="M 43.78125 7.2 
L 601.78125 7.2 
" style="fill: none; stroke: #000000; stroke-width: 0.8; stroke-linejoin: miter; stroke-linecap: square"/>
   </g>
  </g>
 </g>
 <defs>
  <clipPath id="p105f80a9ec">
   <rect x="43.78125" y="7.2" width="558" height="332.64"/>
  </clipPath>
 </defs>
</svg>
