<?xml version="1.0" encoding="utf-8" standalone="no"?>
<!DOCTYPE svg PUBLIC "-//W3C//DTD SVG 1.1//EN"
  "http://www.w3.org/Graphics/SVG/1.1/DTD/svg11.dtd">
<svg xmlns:xlink="http://www.w3.org/1999/xlink" width="928.6675pt" height="290.626458pt" viewBox="0 0 928.6675 290.626458" xmlns="http://www.w3.org/2000/svg" version="1.1">
 <metadata>
  <rdf:RDF xmlns:dc="http://purl.org/dc/elements/1.1/" xmlns:cc="http://creativecommons.org/ns#" xmlns:rdf="http://www.w3.org/1999/02/22-rdf-syntax-ns#">
   <cc:Work>
    <dc:type rdf:resource="http://purl.org/dc/dcmitype/StillImage"/>
    <dc:date>2023-07-07T10:00:47.936347</dc:date>
    <dc:format>image/svg+xml</dc:format>
    <dc:creator>
     <cc:Agent>
      <dc:title>Matplotlib v3.7.1, https://matplotlib.org/</dc:title>
     </cc:Agent>
    </dc:creator>
   </cc:Work>
  </rdf:RDF>
 </metadata>
 <defs>
  <style type="text/css">*{stroke-linejoin: round; stroke-linecap: butt}</style>
 </defs>
 <g id="figure_1">
  <g id="patch_1">
   <path d="M 0 290.626458 
L 928.6675 290.626458 
L 928.6675 0 
L 0 0 
z
" style="fill: #ffffff"/>
  </g>
  <g id="axes_1">
   <g id="patch_2">
    <path d="M 24.15625 266.470208 
L 268.308333 266.470208 
L 268.308333 22.318125 
L 24.15625 22.318125 
z
" style="fill: #ffffff"/>
   </g>
   <g id="QuadMesh_1">
    <path d="M 24.15625 22.318125 
L 146.232292 22.318125 
L 146.232292 144.394167 
L 24.15625 144.394167 
L 24.15625 22.318125 
" style="fill: #ffffff; stroke: #808080; stroke-width: 0.5"/>
    <path d="M 146.232292 22.318125 
L 268.308333 22.318125 
L 268.308333 144.394167 
L 146.232292 144.394167 
L 146.232292 22.318125 
" style="fill: #fbd7d4; stroke: #808080; stroke-width: 0.5"/>
    <path d="M 24.15625 144.394167 
L 146.232292 144.394167 
L 146.232292 266.470208 
L 24.15625 266.470208 
L 24.15625 144.394167 
" style="fill: #fbd7d4; stroke: #808080; stroke-width: 0.5"/>
    <path d="M 146.232292 144.394167 
L 268.308333 144.394167 
L 268.308333 266.470208 
L 146.232292 266.470208 
L 146.232292 144.394167 
" style="fill: #ffffff; stroke: #808080; stroke-width: 0.5"/>
   </g>
   <g id="matplotlib.axis_1">
    <g id="xtick_1">
     <g id="line2d_1">
      <defs>
       <path id="m9e1888c977" d="M 0 0 
L 0 3.5 
" style="stroke: #000000; stroke-width: 0.8"/>
      </defs>
      <g>
       <use xlink:href="#m9e1888c977" x="85.194271" y="266.470208" style="stroke: #000000; stroke-width: 0.8"/>
      </g>
     </g>
     <g id="text_1">
      <!-- afl -->
      <g transform="translate(78.98099 281.068646) scale(0.1 -0.1)">
       <defs>
        <path id="DejaVuSans-61" d="M 2194 1759 
Q 1497 1759 1228 1600 
Q 959 1441 959 1056 
Q 959 750 1161 570 
Q 1363 391 1709 391 
Q 2188 391 2477 730 
Q 2766 1069 2766 1631 
L 2766 1759 
L 2194 1759 
z
M 3341 1997 
L 3341 0 
L 2766 0 
L 2766 531 
Q 2569 213 2275 61 
Q 1981 -91 1556 -91 
Q 1019 -91 701 211 
Q 384 513 384 1019 
Q 384 1609 779 1909 
Q 1175 2209 1959 2209 
L 2766 2209 
L 2766 2266 
Q 2766 2663 2505 2880 
Q 2244 3097 1772 3097 
Q 1472 3097 1187 3025 
Q 903 2953 641 2809 
L 641 3341 
Q 956 3463 1253 3523 
Q 1550 3584 1831 3584 
Q 2591 3584 2966 3190 
Q 3341 2797 3341 1997 
z
" transform="scale(0.015625)"/>
        <path id="DejaVuSans-66" d="M 2375 4863 
L 2375 4384 
L 1825 4384 
Q 1516 4384 1395 4259 
Q 1275 4134 1275 3809 
L 1275 3500 
L 2222 3500 
L 2222 3053 
L 1275 3053 
L 1275 0 
L 697 0 
L 697 3053 
L 147 3053 
L 147 3500 
L 697 3500 
L 697 3744 
Q 697 4328 969 4595 
Q 1241 4863 1831 4863 
L 2375 4863 
z
" transform="scale(0.015625)"/>
        <path id="DejaVuSans-6c" d="M 603 4863 
L 1178 4863 
L 1178 0 
L 603 0 
L 603 4863 
z
" transform="scale(0.015625)"/>
       </defs>
       <use xlink:href="#DejaVuSans-61"/>
       <use xlink:href="#DejaVuSans-66" x="61.279297"/>
       <use xlink:href="#DejaVuSans-6c" x="96.484375"/>
      </g>
     </g>
    </g>
    <g id="xtick_2">
     <g id="line2d_2">
      <g>
       <use xlink:href="#m9e1888c977" x="207.270312" y="266.470208" style="stroke: #000000; stroke-width: 0.8"/>
      </g>
     </g>
     <g id="text_2">
      <!-- pst_aflplusplus -->
      <g transform="translate(170.144531 281.068646) scale(0.1 -0.1)">
       <defs>
        <path id="DejaVuSans-70" d="M 1159 525 
L 1159 -1331 
L 581 -1331 
L 581 3500 
L 1159 3500 
L 1159 2969 
Q 1341 3281 1617 3432 
Q 1894 3584 2278 3584 
Q 2916 3584 3314 3078 
Q 3713 2572 3713 1747 
Q 3713 922 3314 415 
Q 2916 -91 2278 -91 
Q 1894 -91 1617 61 
Q 1341 213 1159 525 
z
M 3116 1747 
Q 3116 2381 2855 2742 
Q 2594 3103 2138 3103 
Q 1681 3103 1420 2742 
Q 1159 2381 1159 1747 
Q 1159 1113 1420 752 
Q 1681 391 2138 391 
Q 2594 391 2855 752 
Q 3116 1113 3116 1747 
z
" transform="scale(0.015625)"/>
        <path id="DejaVuSans-73" d="M 2834 3397 
L 2834 2853 
Q 2591 2978 2328 3040 
Q 2066 3103 1784 3103 
Q 1356 3103 1142 2972 
Q 928 2841 928 2578 
Q 928 2378 1081 2264 
Q 1234 2150 1697 2047 
L 1894 2003 
Q 2506 1872 2764 1633 
Q 3022 1394 3022 966 
Q 3022 478 2636 193 
Q 2250 -91 1575 -91 
Q 1294 -91 989 -36 
Q 684 19 347 128 
L 347 722 
Q 666 556 975 473 
Q 1284 391 1588 391 
Q 1994 391 2212 530 
Q 2431 669 2431 922 
Q 2431 1156 2273 1281 
Q 2116 1406 1581 1522 
L 1381 1569 
Q 847 1681 609 1914 
Q 372 2147 372 2553 
Q 372 3047 722 3315 
Q 1072 3584 1716 3584 
Q 2034 3584 2315 3537 
Q 2597 3491 2834 3397 
z
" transform="scale(0.015625)"/>
        <path id="DejaVuSans-74" d="M 1172 4494 
L 1172 3500 
L 2356 3500 
L 2356 3053 
L 1172 3053 
L 1172 1153 
Q 1172 725 1289 603 
Q 1406 481 1766 481 
L 2356 481 
L 2356 0 
L 1766 0 
Q 1100 0 847 248 
Q 594 497 594 1153 
L 594 3053 
L 172 3053 
L 172 3500 
L 594 3500 
L 594 4494 
L 1172 4494 
z
" transform="scale(0.015625)"/>
        <path id="DejaVuSans-5f" d="M 3263 -1063 
L 3263 -1509 
L -63 -1509 
L -63 -1063 
L 3263 -1063 
z
" transform="scale(0.015625)"/>
        <path id="DejaVuSans-75" d="M 544 1381 
L 544 3500 
L 1119 3500 
L 1119 1403 
Q 1119 906 1312 657 
Q 1506 409 1894 409 
Q 2359 409 2629 706 
Q 2900 1003 2900 1516 
L 2900 3500 
L 3475 3500 
L 3475 0 
L 2900 0 
L 2900 538 
Q 2691 219 2414 64 
Q 2138 -91 1772 -91 
Q 1169 -91 856 284 
Q 544 659 544 1381 
z
M 1991 3584 
L 1991 3584 
z
" transform="scale(0.015625)"/>
       </defs>
       <use xlink:href="#DejaVuSans-70"/>
       <use xlink:href="#DejaVuSans-73" x="63.476562"/>
       <use xlink:href="#DejaVuSans-74" x="115.576172"/>
       <use xlink:href="#DejaVuSans-5f" x="154.785156"/>
       <use xlink:href="#DejaVuSans-61" x="204.785156"/>
       <use xlink:href="#DejaVuSans-66" x="266.064453"/>
       <use xlink:href="#DejaVuSans-6c" x="301.269531"/>
       <use xlink:href="#DejaVuSans-70" x="329.052734"/>
       <use xlink:href="#DejaVuSans-6c" x="392.529297"/>
       <use xlink:href="#DejaVuSans-75" x="420.3125"/>
       <use xlink:href="#DejaVuSans-73" x="483.691406"/>
       <use xlink:href="#DejaVuSans-70" x="535.791016"/>
       <use xlink:href="#DejaVuSans-6c" x="599.267578"/>
       <use xlink:href="#DejaVuSans-75" x="627.050781"/>
       <use xlink:href="#DejaVuSans-73" x="690.429688"/>
      </g>
     </g>
    </g>
   </g>
   <g id="matplotlib.axis_2">
    <g id="ytick_1">
     <g id="line2d_3">
      <defs>
       <path id="mc95b701a7e" d="M 0 0 
L -3.5 0 
" style="stroke: #000000; stroke-width: 0.8"/>
      </defs>
      <g>
       <use xlink:href="#mc95b701a7e" x="24.15625" y="83.356146" style="stroke: #000000; stroke-width: 0.8"/>
      </g>
     </g>
     <g id="text_3">
      <!-- afl -->
      <g transform="translate(15.076563 89.569427) rotate(-90) scale(0.1 -0.1)">
       <use xlink:href="#DejaVuSans-61"/>
       <use xlink:href="#DejaVuSans-66" x="61.279297"/>
       <use xlink:href="#DejaVuSans-6c" x="96.484375"/>
      </g>
     </g>
    </g>
    <g id="ytick_2">
     <g id="line2d_4">
      <g>
       <use xlink:href="#mc95b701a7e" x="24.15625" y="205.432187" style="stroke: #000000; stroke-width: 0.8"/>
      </g>
     </g>
     <g id="text_4">
      <!-- pst_aflplusplus -->
      <g transform="translate(14.798438 242.557969) rotate(-90) scale(0.1 -0.1)">
       <use xlink:href="#DejaVuSans-70"/>
       <use xlink:href="#DejaVuSans-73" x="63.476562"/>
       <use xlink:href="#DejaVuSans-74" x="115.576172"/>
       <use xlink:href="#DejaVuSans-5f" x="154.785156"/>
       <use xlink:href="#DejaVuSans-61" x="204.785156"/>
       <use xlink:href="#DejaVuSans-66" x="266.064453"/>
       <use xlink:href="#DejaVuSans-6c" x="301.269531"/>
       <use xlink:href="#DejaVuSans-70" x="329.052734"/>
       <use xlink:href="#DejaVuSans-6c" x="392.529297"/>
       <use xlink:href="#DejaVuSans-75" x="420.3125"/>
       <use xlink:href="#DejaVuSans-73" x="483.691406"/>
       <use xlink:href="#DejaVuSans-70" x="535.791016"/>
       <use xlink:href="#DejaVuSans-6c" x="599.267578"/>
       <use xlink:href="#DejaVuSans-75" x="627.050781"/>
       <use xlink:href="#DejaVuSans-73" x="690.429688"/>
      </g>
     </g>
    </g>
   </g>
   <g id="text_5">
    <!-- libpng -->
    <g transform="translate(127.668854 16.318125) scale(0.12 -0.12)">
     <defs>
      <path id="DejaVuSans-69" d="M 603 3500 
L 1178 3500 
L 1178 0 
L 603 0 
L 603 3500 
z
M 603 4863 
L 1178 4863 
L 1178 4134 
L 603 4134 
L 603 4863 
z
" transform="scale(0.015625)"/>
      <path id="DejaVuSans-62" d="M 3116 1747 
Q 3116 2381 2855 2742 
Q 2594 3103 2138 3103 
Q 1681 3103 1420 2742 
Q 1159 2381 1159 1747 
Q 1159 1113 1420 752 
Q 1681 391 2138 391 
Q 2594 391 2855 752 
Q 3116 1113 3116 1747 
z
M 1159 2969 
Q 1341 3281 1617 3432 
Q 1894 3584 2278 3584 
Q 2916 3584 3314 3078 
Q 3713 2572 3713 1747 
Q 3713 922 3314 415 
Q 2916 -91 2278 -91 
Q 1894 -91 1617 61 
Q 1341 213 1159 525 
L 1159 0 
L 581 0 
L 581 4863 
L 1159 4863 
L 1159 2969 
z
" transform="scale(0.015625)"/>
      <path id="DejaVuSans-6e" d="M 3513 2113 
L 3513 0 
L 2938 0 
L 2938 2094 
Q 2938 2591 2744 2837 
Q 2550 3084 2163 3084 
Q 1697 3084 1428 2787 
Q 1159 2491 1159 1978 
L 1159 0 
L 581 0 
L 581 3500 
L 1159 3500 
L 1159 2956 
Q 1366 3272 1645 3428 
Q 1925 3584 2291 3584 
Q 2894 3584 3203 3211 
Q 3513 2838 3513 2113 
z
" transform="scale(0.015625)"/>
      <path id="DejaVuSans-67" d="M 2906 1791 
Q 2906 2416 2648 2759 
Q 2391 3103 1925 3103 
Q 1463 3103 1205 2759 
Q 947 2416 947 1791 
Q 947 1169 1205 825 
Q 1463 481 1925 481 
Q 2391 481 2648 825 
Q 2906 1169 2906 1791 
z
M 3481 434 
Q 3481 -459 3084 -895 
Q 2688 -1331 1869 -1331 
Q 1566 -1331 1297 -1286 
Q 1028 -1241 775 -1147 
L 775 -588 
Q 1028 -725 1275 -790 
Q 1522 -856 1778 -856 
Q 2344 -856 2625 -561 
Q 2906 -266 2906 331 
L 2906 616 
Q 2728 306 2450 153 
Q 2172 0 1784 0 
Q 1141 0 747 490 
Q 353 981 353 1791 
Q 353 2603 747 3093 
Q 1141 3584 1784 3584 
Q 2172 3584 2450 3431 
Q 2728 3278 2906 2969 
L 2906 3500 
L 3481 3500 
L 3481 434 
z
" transform="scale(0.015625)"/>
     </defs>
     <use xlink:href="#DejaVuSans-6c"/>
     <use xlink:href="#DejaVuSans-69" x="27.783203"/>
     <use xlink:href="#DejaVuSans-62" x="55.566406"/>
     <use xlink:href="#DejaVuSans-70" x="119.042969"/>
     <use xlink:href="#DejaVuSans-6e" x="182.519531"/>
     <use xlink:href="#DejaVuSans-67" x="245.898438"/>
    </g>
   </g>
  </g>
  <g id="axes_2">
   <g id="patch_3">
    <path d="M 305.489583 266.470208 
L 549.641667 266.470208 
L 549.641667 22.318125 
L 305.489583 22.318125 
z
" style="fill: #ffffff"/>
   </g>
   <g id="QuadMesh_2">
    <path d="M 305.489583 22.318125 
L 427.565625 22.318125 
L 427.565625 144.394167 
L 305.489583 144.394167 
L 305.489583 22.318125 
" style="fill: #ffffff; stroke: #808080; stroke-width: 0.5"/>
    <path d="M 427.565625 22.318125 
L 549.641667 22.318125 
L 549.641667 144.394167 
L 427.565625 144.394167 
L 427.565625 22.318125 
" style="fill: #fbd7d4; stroke: #808080; stroke-width: 0.5"/>
    <path d="M 305.489583 144.394167 
L 427.565625 144.394167 
L 427.565625 266.470208 
L 305.489583 266.470208 
L 305.489583 144.394167 
" style="fill: #fbd7d4; stroke: #808080; stroke-width: 0.5"/>
    <path d="M 427.565625 144.394167 
L 549.641667 144.394167 
L 549.641667 266.470208 
L 427.565625 266.470208 
L 427.565625 144.394167 
" style="fill: #ffffff; stroke: #808080; stroke-width: 0.5"/>
   </g>
   <g id="matplotlib.axis_3">
    <g id="xtick_3">
     <g id="line2d_5">
      <g>
       <use xlink:href="#m9e1888c977" x="366.527604" y="266.470208" style="stroke: #000000; stroke-width: 0.8"/>
      </g>
     </g>
     <g id="text_6">
      <!-- afl -->
      <g transform="translate(360.314323 281.068646) scale(0.1 -0.1)">
       <use xlink:href="#DejaVuSans-61"/>
       <use xlink:href="#DejaVuSans-66" x="61.279297"/>
       <use xlink:href="#DejaVuSans-6c" x="96.484375"/>
      </g>
     </g>
    </g>
    <g id="xtick_4">
     <g id="line2d_6">
      <g>
       <use xlink:href="#m9e1888c977" x="488.603646" y="266.470208" style="stroke: #000000; stroke-width: 0.8"/>
      </g>
     </g>
     <g id="text_7">
      <!-- pst_aflplusplus -->
      <g transform="translate(451.477865 281.068646) scale(0.1 -0.1)">
       <use xlink:href="#DejaVuSans-70"/>
       <use xlink:href="#DejaVuSans-73" x="63.476562"/>
       <use xlink:href="#DejaVuSans-74" x="115.576172"/>
       <use xlink:href="#DejaVuSans-5f" x="154.785156"/>
       <use xlink:href="#DejaVuSans-61" x="204.785156"/>
       <use xlink:href="#DejaVuSans-66" x="266.064453"/>
       <use xlink:href="#DejaVuSans-6c" x="301.269531"/>
       <use xlink:href="#DejaVuSans-70" x="329.052734"/>
       <use xlink:href="#DejaVuSans-6c" x="392.529297"/>
       <use xlink:href="#DejaVuSans-75" x="420.3125"/>
       <use xlink:href="#DejaVuSans-73" x="483.691406"/>
       <use xlink:href="#DejaVuSans-70" x="535.791016"/>
       <use xlink:href="#DejaVuSans-6c" x="599.267578"/>
       <use xlink:href="#DejaVuSans-75" x="627.050781"/>
       <use xlink:href="#DejaVuSans-73" x="690.429688"/>
      </g>
     </g>
    </g>
   </g>
   <g id="matplotlib.axis_4">
    <g id="ytick_3">
     <g id="line2d_7">
      <g>
       <use xlink:href="#mc95b701a7e" x="305.489583" y="83.356146" style="stroke: #000000; stroke-width: 0.8"/>
      </g>
     </g>
     <g id="text_8">
      <!-- afl -->
      <g transform="translate(296.409896 89.569427) rotate(-90) scale(0.1 -0.1)">
       <use xlink:href="#DejaVuSans-61"/>
       <use xlink:href="#DejaVuSans-66" x="61.279297"/>
       <use xlink:href="#DejaVuSans-6c" x="96.484375"/>
      </g>
     </g>
    </g>
    <g id="ytick_4">
     <g id="line2d_8">
      <g>
       <use xlink:href="#mc95b701a7e" x="305.489583" y="205.432187" style="stroke: #000000; stroke-width: 0.8"/>
      </g>
     </g>
     <g id="text_9">
      <!-- pst_aflplusplus -->
      <g transform="translate(296.131771 242.557969) rotate(-90) scale(0.1 -0.1)">
       <use xlink:href="#DejaVuSans-70"/>
       <use xlink:href="#DejaVuSans-73" x="63.476562"/>
       <use xlink:href="#DejaVuSans-74" x="115.576172"/>
       <use xlink:href="#DejaVuSans-5f" x="154.785156"/>
       <use xlink:href="#DejaVuSans-61" x="204.785156"/>
       <use xlink:href="#DejaVuSans-66" x="266.064453"/>
       <use xlink:href="#DejaVuSans-6c" x="301.269531"/>
       <use xlink:href="#DejaVuSans-70" x="329.052734"/>
       <use xlink:href="#DejaVuSans-6c" x="392.529297"/>
       <use xlink:href="#DejaVuSans-75" x="420.3125"/>
       <use xlink:href="#DejaVuSans-73" x="483.691406"/>
       <use xlink:href="#DejaVuSans-70" x="535.791016"/>
       <use xlink:href="#DejaVuSans-6c" x="599.267578"/>
       <use xlink:href="#DejaVuSans-75" x="627.050781"/>
       <use xlink:href="#DejaVuSans-73" x="690.429688"/>
      </g>
     </g>
    </g>
   </g>
   <g id="text_10">
    <!-- libtiff -->
    <g transform="translate(412.179375 16.318125) scale(0.12 -0.12)">
     <use xlink:href="#DejaVuSans-6c"/>
     <use xlink:href="#DejaVuSans-69" x="27.783203"/>
     <use xlink:href="#DejaVuSans-62" x="55.566406"/>
     <use xlink:href="#DejaVuSans-74" x="119.042969"/>
     <use xlink:href="#DejaVuSans-69" x="158.251953"/>
     <use xlink:href="#DejaVuSans-66" x="186.035156"/>
     <use xlink:href="#DejaVuSans-66" x="221.240234"/>
    </g>
   </g>
  </g>
  <g id="axes_3">
   <g id="patch_4">
    <path d="M 586.822917 266.470208 
L 830.975 266.470208 
L 830.975 22.318125 
L 586.822917 22.318125 
z
" style="fill: #ffffff"/>
   </g>
   <g id="QuadMesh_3">
    <path d="M 586.822917 22.318125 
L 708.898958 22.318125 
L 708.898958 144.394167 
L 586.822917 144.394167 
L 586.822917 22.318125 
" style="fill: #ffffff; stroke: #808080; stroke-width: 0.5"/>
    <path d="M 708.898958 22.318125 
L 830.975 22.318125 
L 830.975 144.394167 
L 708.898958 144.394167 
L 708.898958 22.318125 
" style="fill: none; stroke: #808080; stroke-width: 0.5"/>
    <path d="M 586.822917 144.394167 
L 708.898958 144.394167 
L 708.898958 266.470208 
L 586.822917 266.470208 
L 586.822917 144.394167 
" style="fill: none; stroke: #808080; stroke-width: 0.5"/>
    <path d="M 708.898958 144.394167 
L 830.975 144.394167 
L 830.975 266.470208 
L 708.898958 266.470208 
L 708.898958 144.394167 
" style="fill: #ffffff; stroke: #808080; stroke-width: 0.5"/>
   </g>
   <g id="matplotlib.axis_5">
    <g id="xtick_5">
     <g id="line2d_9">
      <g>
       <use xlink:href="#m9e1888c977" x="647.860938" y="266.470208" style="stroke: #000000; stroke-width: 0.8"/>
      </g>
     </g>
     <g id="text_11">
      <!-- afl -->
      <g transform="translate(641.647656 281.068646) scale(0.1 -0.1)">
       <use xlink:href="#DejaVuSans-61"/>
       <use xlink:href="#DejaVuSans-66" x="61.279297"/>
       <use xlink:href="#DejaVuSans-6c" x="96.484375"/>
      </g>
     </g>
    </g>
    <g id="xtick_6">
     <g id="line2d_10">
      <g>
       <use xlink:href="#m9e1888c977" x="769.936979" y="266.470208" style="stroke: #000000; stroke-width: 0.8"/>
      </g>
     </g>
     <g id="text_12">
      <!-- pst_aflplusplus -->
      <g transform="translate(732.811198 281.068646) scale(0.1 -0.1)">
       <use xlink:href="#DejaVuSans-70"/>
       <use xlink:href="#DejaVuSans-73" x="63.476562"/>
       <use xlink:href="#DejaVuSans-74" x="115.576172"/>
       <use xlink:href="#DejaVuSans-5f" x="154.785156"/>
       <use xlink:href="#DejaVuSans-61" x="204.785156"/>
       <use xlink:href="#DejaVuSans-66" x="266.064453"/>
       <use xlink:href="#DejaVuSans-6c" x="301.269531"/>
       <use xlink:href="#DejaVuSans-70" x="329.052734"/>
       <use xlink:href="#DejaVuSans-6c" x="392.529297"/>
       <use xlink:href="#DejaVuSans-75" x="420.3125"/>
       <use xlink:href="#DejaVuSans-73" x="483.691406"/>
       <use xlink:href="#DejaVuSans-70" x="535.791016"/>
       <use xlink:href="#DejaVuSans-6c" x="599.267578"/>
       <use xlink:href="#DejaVuSans-75" x="627.050781"/>
       <use xlink:href="#DejaVuSans-73" x="690.429688"/>
      </g>
     </g>
    </g>
   </g>
   <g id="matplotlib.axis_6">
    <g id="ytick_5">
     <g id="line2d_11">
      <g>
       <use xlink:href="#mc95b701a7e" x="586.822917" y="83.356146" style="stroke: #000000; stroke-width: 0.8"/>
      </g>
     </g>
     <g id="text_13">
      <!-- afl -->
      <g transform="translate(577.743229 89.569427) rotate(-90) scale(0.1 -0.1)">
       <use xlink:href="#DejaVuSans-61"/>
       <use xlink:href="#DejaVuSans-66" x="61.279297"/>
       <use xlink:href="#DejaVuSans-6c" x="96.484375"/>
      </g>
     </g>
    </g>
    <g id="ytick_6">
     <g id="line2d_12">
      <g>
       <use xlink:href="#mc95b701a7e" x="586.822917" y="205.432187" style="stroke: #000000; stroke-width: 0.8"/>
      </g>
     </g>
     <g id="text_14">
      <!-- pst_aflplusplus -->
      <g transform="translate(577.465104 242.557969) rotate(-90) scale(0.1 -0.1)">
       <use xlink:href="#DejaVuSans-70"/>
       <use xlink:href="#DejaVuSans-73" x="63.476562"/>
       <use xlink:href="#DejaVuSans-74" x="115.576172"/>
       <use xlink:href="#DejaVuSans-5f" x="154.785156"/>
       <use xlink:href="#DejaVuSans-61" x="204.785156"/>
       <use xlink:href="#DejaVuSans-66" x="266.064453"/>
       <use xlink:href="#DejaVuSans-6c" x="301.269531"/>
       <use xlink:href="#DejaVuSans-70" x="329.052734"/>
       <use xlink:href="#DejaVuSans-6c" x="392.529297"/>
       <use xlink:href="#DejaVuSans-75" x="420.3125"/>
       <use xlink:href="#DejaVuSans-73" x="483.691406"/>
       <use xlink:href="#DejaVuSans-70" x="535.791016"/>
       <use xlink:href="#DejaVuSans-6c" x="599.267578"/>
       <use xlink:href="#DejaVuSans-75" x="627.050781"/>
       <use xlink:href="#DejaVuSans-73" x="690.429688"/>
      </g>
     </g>
    </g>
   </g>
   <g id="text_15">
    <!-- libxml2 -->
    <g transform="translate(686.876146 16.318125) scale(0.12 -0.12)">
     <defs>
      <path id="DejaVuSans-78" d="M 3513 3500 
L 2247 1797 
L 3578 0 
L 2900 0 
L 1881 1375 
L 863 0 
L 184 0 
L 1544 1831 
L 300 3500 
L 978 3500 
L 1906 2253 
L 2834 3500 
L 3513 3500 
z
" transform="scale(0.015625)"/>
      <path id="DejaVuSans-6d" d="M 3328 2828 
Q 3544 3216 3844 3400 
Q 4144 3584 4550 3584 
Q 5097 3584 5394 3201 
Q 5691 2819 5691 2113 
L 5691 0 
L 5113 0 
L 5113 2094 
Q 5113 2597 4934 2840 
Q 4756 3084 4391 3084 
Q 3944 3084 3684 2787 
Q 3425 2491 3425 1978 
L 3425 0 
L 2847 0 
L 2847 2094 
Q 2847 2600 2669 2842 
Q 2491 3084 2119 3084 
Q 1678 3084 1418 2786 
Q 1159 2488 1159 1978 
L 1159 0 
L 581 0 
L 581 3500 
L 1159 3500 
L 1159 2956 
Q 1356 3278 1631 3431 
Q 1906 3584 2284 3584 
Q 2666 3584 2933 3390 
Q 3200 3197 3328 2828 
z
" transform="scale(0.015625)"/>
      <path id="DejaVuSans-32" d="M 1228 531 
L 3431 531 
L 3431 0 
L 469 0 
L 469 531 
Q 828 903 1448 1529 
Q 2069 2156 2228 2338 
Q 2531 2678 2651 2914 
Q 2772 3150 2772 3378 
Q 2772 3750 2511 3984 
Q 2250 4219 1831 4219 
Q 1534 4219 1204 4116 
Q 875 4013 500 3803 
L 500 4441 
Q 881 4594 1212 4672 
Q 1544 4750 1819 4750 
Q 2544 4750 2975 4387 
Q 3406 4025 3406 3419 
Q 3406 3131 3298 2873 
Q 3191 2616 2906 2266 
Q 2828 2175 2409 1742 
Q 1991 1309 1228 531 
z
" transform="scale(0.015625)"/>
     </defs>
     <use xlink:href="#DejaVuSans-6c"/>
     <use xlink:href="#DejaVuSans-69" x="27.783203"/>
     <use xlink:href="#DejaVuSans-62" x="55.566406"/>
     <use xlink:href="#DejaVuSans-78" x="119.042969"/>
     <use xlink:href="#DejaVuSans-6d" x="178.222656"/>
     <use xlink:href="#DejaVuSans-6c" x="275.634766"/>
     <use xlink:href="#DejaVuSans-32" x="303.417969"/>
    </g>
   </g>
  </g>
  <g id="axes_4">
   <g id="patch_5">
    <path d="M 850.975 230.794167 
L 868.255 230.794167 
L 868.255 57.994167 
L 850.975 57.994167 
z
" style="fill: #ffffff"/>
   </g>
   <g id="QuadMesh_4">
    <path d="M 850.975 230.794167 
L 868.255 230.794167 
L 868.255 187.594167 
L 850.975 187.594167 
L 850.975 230.794167 
" clip-path="url(#p131aec7948)" style="fill: #005a32"/>
    <path d="M 850.975 187.594167 
L 868.255 187.594167 
L 868.255 144.394167 
L 850.975 144.394167 
L 850.975 187.594167 
" clip-path="url(#p131aec7948)" style="fill: #238b45"/>
    <path d="M 850.975 144.394167 
L 868.255 144.394167 
L 868.255 101.194167 
L 850.975 101.194167 
L 850.975 144.394167 
" clip-path="url(#p131aec7948)" style="fill: #a1d99b"/>
    <path d="M 850.975 101.194167 
L 868.255 101.194167 
L 868.255 57.994167 
L 850.975 57.994167 
L 850.975 101.194167 
" clip-path="url(#p131aec7948)" style="fill: #fbd7d4"/>
   </g>
   <g id="matplotlib.axis_7"/>
   <g id="matplotlib.axis_8">
    <g id="ytick_7">
     <g id="line2d_13"/>
     <g id="text_16">
      <!-- p &lt; 0.001 -->
      <g transform="translate(871.755 212.993385) scale(0.1 -0.1)">
       <defs>
        <path id="DejaVuSans-20" transform="scale(0.015625)"/>
        <path id="DejaVuSans-3c" d="M 4684 3150 
L 1459 2003 
L 4684 863 
L 4684 294 
L 678 1747 
L 678 2266 
L 4684 3719 
L 4684 3150 
z
" transform="scale(0.015625)"/>
        <path id="DejaVuSans-30" d="M 2034 4250 
Q 1547 4250 1301 3770 
Q 1056 3291 1056 2328 
Q 1056 1369 1301 889 
Q 1547 409 2034 409 
Q 2525 409 2770 889 
Q 3016 1369 3016 2328 
Q 3016 3291 2770 3770 
Q 2525 4250 2034 4250 
z
M 2034 4750 
Q 2819 4750 3233 4129 
Q 3647 3509 3647 2328 
Q 3647 1150 3233 529 
Q 2819 -91 2034 -91 
Q 1250 -91 836 529 
Q 422 1150 422 2328 
Q 422 3509 836 4129 
Q 1250 4750 2034 4750 
z
" transform="scale(0.015625)"/>
        <path id="DejaVuSans-2e" d="M 684 794 
L 1344 794 
L 1344 0 
L 684 0 
L 684 794 
z
" transform="scale(0.015625)"/>
        <path id="DejaVuSans-31" d="M 794 531 
L 1825 531 
L 1825 4091 
L 703 3866 
L 703 4441 
L 1819 4666 
L 2450 4666 
L 2450 531 
L 3481 531 
L 3481 0 
L 794 0 
L 794 531 
z
" transform="scale(0.015625)"/>
       </defs>
       <use xlink:href="#DejaVuSans-70"/>
       <use xlink:href="#DejaVuSans-20" x="63.476562"/>
       <use xlink:href="#DejaVuSans-3c" x="95.263672"/>
       <use xlink:href="#DejaVuSans-20" x="179.052734"/>
       <use xlink:href="#DejaVuSans-30" x="210.839844"/>
       <use xlink:href="#DejaVuSans-2e" x="274.462891"/>
       <use xlink:href="#DejaVuSans-30" x="306.25"/>
       <use xlink:href="#DejaVuSans-30" x="369.873047"/>
       <use xlink:href="#DejaVuSans-31" x="433.496094"/>
      </g>
     </g>
    </g>
    <g id="ytick_8">
     <g id="line2d_14"/>
     <g id="text_17">
      <!-- p &lt; 0.01 -->
      <g transform="translate(871.755 169.793385) scale(0.1 -0.1)">
       <use xlink:href="#DejaVuSans-70"/>
       <use xlink:href="#DejaVuSans-20" x="63.476562"/>
       <use xlink:href="#DejaVuSans-3c" x="95.263672"/>
       <use xlink:href="#DejaVuSans-20" x="179.052734"/>
       <use xlink:href="#DejaVuSans-30" x="210.839844"/>
       <use xlink:href="#DejaVuSans-2e" x="274.462891"/>
       <use xlink:href="#DejaVuSans-30" x="306.25"/>
       <use xlink:href="#DejaVuSans-31" x="369.873047"/>
      </g>
     </g>
    </g>
    <g id="ytick_9">
     <g id="line2d_15"/>
     <g id="text_18">
      <!-- p &lt; 0.05 -->
      <g transform="translate(871.755 126.593385) scale(0.1 -0.1)">
       <defs>
        <path id="DejaVuSans-35" d="M 691 4666 
L 3169 4666 
L 3169 4134 
L 1269 4134 
L 1269 2991 
Q 1406 3038 1543 3061 
Q 1681 3084 1819 3084 
Q 2600 3084 3056 2656 
Q 3513 2228 3513 1497 
Q 3513 744 3044 326 
Q 2575 -91 1722 -91 
Q 1428 -91 1123 -41 
Q 819 9 494 109 
L 494 744 
Q 775 591 1075 516 
Q 1375 441 1709 441 
Q 2250 441 2565 725 
Q 2881 1009 2881 1497 
Q 2881 1984 2565 2268 
Q 2250 2553 1709 2553 
Q 1456 2553 1204 2497 
Q 953 2441 691 2322 
L 691 4666 
z
" transform="scale(0.015625)"/>
       </defs>
       <use xlink:href="#DejaVuSans-70"/>
       <use xlink:href="#DejaVuSans-20" x="63.476562"/>
       <use xlink:href="#DejaVuSans-3c" x="95.263672"/>
       <use xlink:href="#DejaVuSans-20" x="179.052734"/>
       <use xlink:href="#DejaVuSans-30" x="210.839844"/>
       <use xlink:href="#DejaVuSans-2e" x="274.462891"/>
       <use xlink:href="#DejaVuSans-30" x="306.25"/>
       <use xlink:href="#DejaVuSans-35" x="369.873047"/>
      </g>
     </g>
    </g>
    <g id="ytick_10">
     <g id="line2d_16"/>
     <g id="text_19">
      <!-- NS -->
      <g transform="translate(871.755 83.393385) scale(0.1 -0.1)">
       <defs>
        <path id="DejaVuSans-4e" d="M 628 4666 
L 1478 4666 
L 3547 763 
L 3547 4666 
L 4159 4666 
L 4159 0 
L 3309 0 
L 1241 3903 
L 1241 0 
L 628 0 
L 628 4666 
z
" transform="scale(0.015625)"/>
        <path id="DejaVuSans-53" d="M 3425 4513 
L 3425 3897 
Q 3066 4069 2747 4153 
Q 2428 4238 2131 4238 
Q 1616 4238 1336 4038 
Q 1056 3838 1056 3469 
Q 1056 3159 1242 3001 
Q 1428 2844 1947 2747 
L 2328 2669 
Q 3034 2534 3370 2195 
Q 3706 1856 3706 1288 
Q 3706 609 3251 259 
Q 2797 -91 1919 -91 
Q 1588 -91 1214 -16 
Q 841 59 441 206 
L 441 856 
Q 825 641 1194 531 
Q 1563 422 1919 422 
Q 2459 422 2753 634 
Q 3047 847 3047 1241 
Q 3047 1584 2836 1778 
Q 2625 1972 2144 2069 
L 1759 2144 
Q 1053 2284 737 2584 
Q 422 2884 422 3419 
Q 422 4038 858 4394 
Q 1294 4750 2059 4750 
Q 2388 4750 2728 4690 
Q 3069 4631 3425 4513 
z
" transform="scale(0.015625)"/>
       </defs>
       <use xlink:href="#DejaVuSans-4e"/>
       <use xlink:href="#DejaVuSans-53" x="74.804688"/>
      </g>
     </g>
    </g>
   </g>
   <g id="LineCollection_1"/>
   <g id="patch_6">
    <path d="M 850.975 230.794167 
L 859.615 230.794167 
L 868.255 230.794167 
L 868.255 57.994167 
L 859.615 57.994167 
L 850.975 57.994167 
L 850.975 230.794167 
z
" style="fill: none; stroke: #808080; stroke-linejoin: miter; stroke-linecap: square"/>
   </g>
  </g>
  <g id="axes_5">
   <g id="patch_7">
    <path d="M 850.975 230.794167 
L 868.255 230.794167 
L 868.255 57.994167 
L 850.975 57.994167 
z
" style="fill: #ffffff"/>
   </g>
   <g id="QuadMesh_5">
    <path d="M 850.975 230.794167 
L 868.255 230.794167 
L 868.255 187.594167 
L 850.975 187.594167 
L 850.975 230.794167 
" clip-path="url(#p131aec7948)" style="fill: #005a32"/>
    <path d="M 850.975 187.594167 
L 868.255 187.594167 
L 868.255 144.394167 
L 850.975 144.394167 
L 850.975 187.594167 
" clip-path="url(#p131aec7948)" style="fill: #238b45"/>
    <path d="M 850.975 144.394167 
L 868.255 144.394167 
L 868.255 101.194167 
L 850.975 101.194167 
L 850.975 144.394167 
" clip-path="url(#p131aec7948)" style="fill: #a1d99b"/>
    <path d="M 850.975 101.194167 
L 868.255 101.194167 
L 868.255 57.994167 
L 850.975 57.994167 
L 850.975 101.194167 
" clip-path="url(#p131aec7948)" style="fill: #fbd7d4"/>
   </g>
   <g id="matplotlib.axis_9"/>
   <g id="matplotlib.axis_10">
    <g id="ytick_11">
     <g id="line2d_17"/>
     <g id="text_20">
      <!-- p &lt; 0.001 -->
      <g transform="translate(871.755 212.993385) scale(0.1 -0.1)">
       <use xlink:href="#DejaVuSans-70"/>
       <use xlink:href="#DejaVuSans-20" x="63.476562"/>
       <use xlink:href="#DejaVuSans-3c" x="95.263672"/>
       <use xlink:href="#DejaVuSans-20" x="179.052734"/>
       <use xlink:href="#DejaVuSans-30" x="210.839844"/>
       <use xlink:href="#DejaVuSans-2e" x="274.462891"/>
       <use xlink:href="#DejaVuSans-30" x="306.25"/>
       <use xlink:href="#DejaVuSans-30" x="369.873047"/>
       <use xlink:href="#DejaVuSans-31" x="433.496094"/>
      </g>
     </g>
    </g>
    <g id="ytick_12">
     <g id="line2d_18"/>
     <g id="text_21">
      <!-- p &lt; 0.01 -->
      <g transform="translate(871.755 169.793385) scale(0.1 -0.1)">
       <use xlink:href="#DejaVuSans-70"/>
       <use xlink:href="#DejaVuSans-20" x="63.476562"/>
       <use xlink:href="#DejaVuSans-3c" x="95.263672"/>
       <use xlink:href="#DejaVuSans-20" x="179.052734"/>
       <use xlink:href="#DejaVuSans-30" x="210.839844"/>
       <use xlink:href="#DejaVuSans-2e" x="274.462891"/>
       <use xlink:href="#DejaVuSans-30" x="306.25"/>
       <use xlink:href="#DejaVuSans-31" x="369.873047"/>
      </g>
     </g>
    </g>
    <g id="ytick_13">
     <g id="line2d_19"/>
     <g id="text_22">
      <!-- p &lt; 0.05 -->
      <g transform="translate(871.755 126.593385) scale(0.1 -0.1)">
       <use xlink:href="#DejaVuSans-70"/>
       <use xlink:href="#DejaVuSans-20" x="63.476562"/>
       <use xlink:href="#DejaVuSans-3c" x="95.263672"/>
       <use xlink:href="#DejaVuSans-20" x="179.052734"/>
       <use xlink:href="#DejaVuSans-30" x="210.839844"/>
       <use xlink:href="#DejaVuSans-2e" x="274.462891"/>
       <use xlink:href="#DejaVuSans-30" x="306.25"/>
       <use xlink:href="#DejaVuSans-35" x="369.873047"/>
      </g>
     </g>
    </g>
    <g id="ytick_14">
     <g id="line2d_20"/>
     <g id="text_23">
      <!-- NS -->
      <g transform="translate(871.755 83.393385) scale(0.1 -0.1)">
       <use xlink:href="#DejaVuSans-4e"/>
       <use xlink:href="#DejaVuSans-53" x="74.804688"/>
      </g>
     </g>
    </g>
   </g>
   <g id="LineCollection_2"/>
   <g id="patch_8">
    <path d="M 850.975 230.794167 
L 859.615 230.794167 
L 868.255 230.794167 
L 868.255 57.994167 
L 859.615 57.994167 
L 850.975 57.994167 
L 850.975 230.794167 
z
" style="fill: none; stroke: #808080; stroke-linejoin: miter; stroke-linecap: square"/>
   </g>
  </g>
  <g id="axes_6">
   <g id="patch_9">
    <path d="M 850.975 230.794167 
L 868.255 230.794167 
L 868.255 57.994167 
L 850.975 57.994167 
z
" style="fill: #ffffff"/>
   </g>
   <g id="QuadMesh_6">
    <path d="M 850.975 230.794167 
L 868.255 230.794167 
L 868.255 187.594167 
L 850.975 187.594167 
L 850.975 230.794167 
" clip-path="url(#p131aec7948)" style="fill: #005a32"/>
    <path d="M 850.975 187.594167 
L 868.255 187.594167 
L 868.255 144.394167 
L 850.975 144.394167 
L 850.975 187.594167 
" clip-path="url(#p131aec7948)" style="fill: #238b45"/>
    <path d="M 850.975 144.394167 
L 868.255 144.394167 
L 868.255 101.194167 
L 850.975 101.194167 
L 850.975 144.394167 
" clip-path="url(#p131aec7948)" style="fill: #a1d99b"/>
    <path d="M 850.975 101.194167 
L 868.255 101.194167 
L 868.255 57.994167 
L 850.975 57.994167 
L 850.975 101.194167 
" clip-path="url(#p131aec7948)" style="fill: #fbd7d4"/>
   </g>
   <g id="matplotlib.axis_11"/>
   <g id="matplotlib.axis_12">
    <g id="ytick_15">
     <g id="line2d_21"/>
     <g id="text_24">
      <!-- p &lt; 0.001 -->
      <g transform="translate(871.755 212.993385) scale(0.1 -0.1)">
       <use xlink:href="#DejaVuSans-70"/>
       <use xlink:href="#DejaVuSans-20" x="63.476562"/>
       <use xlink:href="#DejaVuSans-3c" x="95.263672"/>
       <use xlink:href="#DejaVuSans-20" x="179.052734"/>
       <use xlink:href="#DejaVuSans-30" x="210.839844"/>
       <use xlink:href="#DejaVuSans-2e" x="274.462891"/>
       <use xlink:href="#DejaVuSans-30" x="306.25"/>
       <use xlink:href="#DejaVuSans-30" x="369.873047"/>
       <use xlink:href="#DejaVuSans-31" x="433.496094"/>
      </g>
     </g>
    </g>
    <g id="ytick_16">
     <g id="line2d_22"/>
     <g id="text_25">
      <!-- p &lt; 0.01 -->
      <g transform="translate(871.755 169.793385) scale(0.1 -0.1)">
       <use xlink:href="#DejaVuSans-70"/>
       <use xlink:href="#DejaVuSans-20" x="63.476562"/>
       <use xlink:href="#DejaVuSans-3c" x="95.263672"/>
       <use xlink:href="#DejaVuSans-20" x="179.052734"/>
       <use xlink:href="#DejaVuSans-30" x="210.839844"/>
       <use xlink:href="#DejaVuSans-2e" x="274.462891"/>
       <use xlink:href="#DejaVuSans-30" x="306.25"/>
       <use xlink:href="#DejaVuSans-31" x="369.873047"/>
      </g>
     </g>
    </g>
    <g id="ytick_17">
     <g id="line2d_23"/>
     <g id="text_26">
      <!-- p &lt; 0.05 -->
      <g transform="translate(871.755 126.593385) scale(0.1 -0.1)">
       <use xlink:href="#DejaVuSans-70"/>
       <use xlink:href="#DejaVuSans-20" x="63.476562"/>
       <use xlink:href="#DejaVuSans-3c" x="95.263672"/>
       <use xlink:href="#DejaVuSans-20" x="179.052734"/>
       <use xlink:href="#DejaVuSans-30" x="210.839844"/>
       <use xlink:href="#DejaVuSans-2e" x="274.462891"/>
       <use xlink:href="#DejaVuSans-30" x="306.25"/>
       <use xlink:href="#DejaVuSans-35" x="369.873047"/>
      </g>
     </g>
    </g>
    <g id="ytick_18">
     <g id="line2d_24"/>
     <g id="text_27">
      <!-- NS -->
      <g transform="translate(871.755 83.393385) scale(0.1 -0.1)">
       <use xlink:href="#DejaVuSans-4e"/>
       <use xlink:href="#DejaVuSans-53" x="74.804688"/>
      </g>
     </g>
    </g>
   </g>
   <g id="LineCollection_3"/>
   <g id="patch_10">
    <path d="M 850.975 230.794167 
L 859.615 230.794167 
L 868.255 230.794167 
L 868.255 57.994167 
L 859.615 57.994167 
L 850.975 57.994167 
L 850.975 230.794167 
z
" style="fill: none; stroke: #808080; stroke-linejoin: miter; stroke-linecap: square"/>
   </g>
  </g>
 </g>
 <defs>
  <clipPath id="p131aec7948">
   <rect x="850.975" y="57.994167" width="17.28" height="172.8"/>
  </clipPath>
 </defs>
</svg>
